<?xml version="1.0" standalone="no"?>
<!DOCTYPE svg PUBLIC "-//W3C//DTD SVG 1.1//EN" "http://www.w3.org/Graphics/SVG/1.1/DTD/svg11.dtd" >
<svg xmlns="http://www.w3.org/2000/svg" xmlns:xlink="http://www.w3.org/1999/xlink" version="1.1">
<metadata>
Created by FontForge 20170731 at Fri Jan  4 23:26:05 2013
 By Aleksey,,,
Copyright (c) 2012 by Rui Abreu, Portugal. All rights reserved.
</metadata>
<defs>
<font id="AzoSans-LightItalic" horiz-adv-x="480" >
  <font-face 
    font-family="Azo Sans Lt"
    font-weight="300"
    font-style="italic"
    font-stretch="normal"
    units-per-em="1000"
    panose-1="2 0 0 0 0 0 0 0 0 0"
    ascent="800"
    descent="-200"
    x-height="492"
    cap-height="724"
    bbox="-126 -272 1261 1008"
    underline-thickness="50"
    underline-position="-220"
    slope="-10"
    unicode-range="U+000D-FB02"
  />
<missing-glyph horiz-adv-x="646" 
d="M151 604l131 131l213 -212l-101 -101l101 -100l-101 -101l101 -100l-132 -132l-212 213l100 100l-100 101l100 100z" />
    <glyph glyph-name="fi" unicode="fi" horiz-adv-x="557" 
d="M151 492l24 134q15 80 55 114q39 35 105 35q35 0 76 -11l-9 -55q-36 12 -68 12q-43 0 -66 -22q-25 -22 -36 -83l-22 -124h135l-9 -52h-135l-78 -440h-59l78 440h-83l9 52h83zM367 0l87 492h59l-87 -492h-59zM511 618q-19 0 -31 12.5t-12 30.5q0 20 14 34t34 14
q19 0 31 -12.5t12 -30.5q0 -20 -14 -34t-34 -14z" />
    <glyph glyph-name="fl" unicode="fl" horiz-adv-x="557" 
d="M151 492l24 134q15 80 55 114q39 35 105 35q35 0 76 -11l-9 -55q-36 12 -68 12q-43 0 -66 -22q-25 -22 -36 -83l-22 -124h135l-9 -52h-135l-78 -440h-59l78 440h-83l9 52h83zM561 764l-135 -764h-59l135 764h59z" />
    <glyph glyph-name=".notdef" horiz-adv-x="646" 
d="M151 604l131 131l213 -212l-101 -101l101 -100l-101 -101l101 -100l-132 -132l-212 213l100 100l-100 101l100 100z" />
    <glyph glyph-name=".null" horiz-adv-x="1" 
 />
    <glyph glyph-name=".null" horiz-adv-x="1" 
 />
    <glyph glyph-name="nonmarkingreturn" horiz-adv-x="333" 
 />
    <glyph glyph-name="CR" unicode="&#xd;" horiz-adv-x="339" 
 />
    <glyph glyph-name="space" unicode=" " horiz-adv-x="240" 
 />
    <glyph glyph-name="exclam" unicode="!" horiz-adv-x="310" 
d="M130 210l76 514h67l-105 -514h-38zM116 -11q-20 0 -33.5 13.5t-13.5 33.5q0 21 15 35.5t36 14.5q20 0 33.5 -13.5t13.5 -33.5q0 -21 -15 -35.5t-36 -14.5z" />
    <glyph glyph-name="quotedbl" unicode="&#x22;" horiz-adv-x="337" 
d="M116 481l36 261h57l-56 -261h-37zM266 481l36 261h57l-56 -261h-37z" />
    <glyph glyph-name="numbersign" unicode="#" horiz-adv-x="600" 
d="M31 276h131l80 172h-132l20 43h132l108 233h45l-108 -233h146l108 233h45l-108 -233h131l-20 -43h-131l-80 -172h132l-20 -43h-132l-108 -233h-45l108 233h-146l-108 -233h-45l108 233h-131zM433 448h-146l-80 -172h146z" />
    <glyph glyph-name="dollar" unicode="$" horiz-adv-x="545" 
d="M54 106l11 63q93 -67 200 -67q63 0 107.5 29.5t44.5 87.5q0 45 -31 69.5t-106 53.5q-81 31 -120.5 65t-39.5 97q0 78 56.5 124.5t145.5 48.5l22 123h49l-22 -126q77 -11 143 -47l-10 -61q-89 56 -179 56q-61 0 -103 -28.5t-42 -82.5q0 -45 31 -68.5t107 -53.5
q81 -32 120 -66.5t39 -99.5q0 -83 -60.5 -129.5t-156.5 -46.5l-22 -123h-49l22 126q-87 11 -157 56z" />
    <glyph glyph-name="percent" unicode="%" horiz-adv-x="919" 
d="M148 0l613 724h52l-613 -724h-52zM266 404q58 0 99 49.5t41 111.5q0 51 -31 89t-83 38q-58 0 -99 -49.5t-41 -111.5q0 -51 31 -89t83 -38zM264 361q-68 0 -112 48t-44 118q0 79 52.5 143.5t133.5 64.5q68 0 112 -48t44 -118q0 -79 -52.5 -143.5t-133.5 -64.5zM695 320
q-58 0 -99 -49.5t-41 -111.5q0 -51 31 -89t83 -38q58 0 99 49.5t41 111.5q0 51 -31 89t-83 38zM697 363q68 0 112 -48t44 -118q0 -79 -52.5 -143.5t-133.5 -64.5q-68 0 -112 48t-44 118q0 79 52.5 143.5t133.5 64.5z" />
    <glyph glyph-name="ampersand" unicode="&#x26;" horiz-adv-x="695" 
d="M68 165q0 126 151 208l48 26l-24 32q-50 67 -50 126q0 73 54.5 125.5t132.5 52.5q65 0 108.5 -37.5t43.5 -101.5q0 -108 -126 -178l-57 -32l149 -191l112 239h61l-136 -287l113 -145l-1 -2h-69l-77 98q-76 -109 -221 -109q-96 0 -154 48.5t-58 127.5zM284 43
q122 0 182 100l-167 216l-56 -30q-116 -62 -116 -157q0 -58 42 -93.5t115 -35.5zM251 556q0 -43 39 -93l29 -38l59 34q96 56 96 130q0 41 -27 66.5t-71 25.5q-52 0 -88.5 -35t-36.5 -90z" />
    <glyph glyph-name="quotesingle" unicode="'" horiz-adv-x="187" 
d="M116 481l36 261h57l-56 -261h-37z" />
    <glyph glyph-name="parenleft" unicode="(" horiz-adv-x="317" 
d="M75 113q0 188 70 362q62 154 169 268h63q-115 -115 -181 -282q-67 -167 -67 -344q0 -188 76 -330h-55q-75 135 -75 326z" />
    <glyph glyph-name="parenright" unicode=")" horiz-adv-x="317" 
d="M256 417q0 -188 -70 -362q-62 -154 -169 -268h-63q115 115 181 282q67 167 67 344q0 188 -76 330h55q75 -135 75 -326z" />
    <glyph glyph-name="asterisk" unicode="*" horiz-adv-x="455" 
d="M269 570l20 159h47l-37 -159h-30zM318 529l-4 29l157 58l6 -46zM90 571l22 45l139 -55l-15 -30zM147 358l-33 29l124 125l22 -19zM344 358l-63 135l28 17l77 -126z" />
    <glyph glyph-name="plus" unicode="+" horiz-adv-x="576" 
d="M241 116l39 222h-209l8 48h209l39 222h49l-39 -222h209l-8 -48h-209l-39 -222h-49z" />
    <glyph glyph-name="comma" unicode="," horiz-adv-x="296" 
d="M3 -147l105 273h63l-124 -273h-44z" />
    <glyph glyph-name="hyphen" unicode="-" horiz-adv-x="353" 
d="M63 251l9 52h228l-9 -52h-228z" />
    <glyph glyph-name="period" unicode="." horiz-adv-x="296" 
d="M109 -11q-21 0 -35 14t-14 34q0 22 15.5 37t37.5 15q21 0 35 -14t14 -34q0 -22 -15.5 -37t-37.5 -15z" />
    <glyph glyph-name="slash" unicode="/" horiz-adv-x="433" 
d="M21 -38h-53l483 800h53z" />
    <glyph glyph-name="zero" unicode="0" horiz-adv-x="556" 
d="M118 245q0 -199 134 -199q105 0 164 131q28 63 45.5 146.5t17.5 155.5q0 199 -134 199q-105 0 -164 -131q-28 -63 -45.5 -146.5t-17.5 -155.5zM57 238q0 75 18.5 166.5t51.5 164.5q77 166 220 166q94 0 143.5 -65.5t49.5 -183.5q0 -75 -18.5 -166.5t-51.5 -164.5
q-77 -166 -220 -166q-94 0 -143.5 65.5t-49.5 183.5z" />
    <glyph glyph-name="one" unicode="1" horiz-adv-x="494" 
d="M209 0l115 650l-191 -68l11 61l256 92l-130 -735h-61z" />
    <glyph glyph-name="two" unicode="2" horiz-adv-x="547" 
d="M452 551q0 61 -39.5 94t-103.5 33q-86 0 -163 -52l12 68q70 41 154 41q86 0 143.5 -46.5t57.5 -135.5q0 -75 -44.5 -143t-133.5 -154l-206 -198l1 -2h327l-10 -56h-456l-1 2l295 283q82 79 124.5 140t42.5 126z" />
    <glyph glyph-name="three" unicode="3" horiz-adv-x="524" 
d="M15 56l12 66q91 -76 197 -76q78 0 129 43q54 46 54 114q0 62 -49 98t-121 36h-67l10 54h69q94 0 148 59q38 41 38 99q0 60 -41.5 94.5t-106.5 34.5q-77 0 -140 -40l11 64q64 32 134 32q85 0 144.5 -46.5t59.5 -131.5q0 -72 -44 -125q-36 -43 -105 -66v-2q55 -18 88 -59
t33 -101q0 -95 -76 -156q-71 -58 -173 -58q-116 0 -204 67z" />
    <glyph glyph-name="four" unicode="4" horiz-adv-x="621" 
d="M16 191l-1 2l466 531h60l-84 -479h145l-10 -54h-145l-34 -191h-61l34 191h-370zM131 245h265l33 186q13 78 35 195l-2 1q-87 -102 -151 -174l-181 -206z" />
    <glyph glyph-name="five" unicode="5" horiz-adv-x="538" 
d="M24 52l16 63q91 -69 192 -69q86 0 136 47q48 45 48 113q0 97 -110 140q-73 29 -198 29l89 349h321l-14 -56h-261l-62 -243q109 -5 184 -43q112 -57 112 -173q0 -97 -70 -159q-69 -61 -178 -61q-114 0 -205 63z" />
    <glyph glyph-name="six" unicode="6" horiz-adv-x="572" 
d="M374 724h74l-222 -283q-25 -31 -43 -58l1 -1q52 40 124 40q90 0 150.5 -55t60.5 -143q0 -99 -73 -167q-71 -68 -177 -68q-94 0 -157.5 56.5t-63.5 154.5q0 66 31 125t90 135zM110 197q0 -65 44 -109t118 -44q78 0 133 53q53 51 53 124q0 65 -45 106.5t-116 41.5
q-77 0 -132 -50q-55 -52 -55 -122z" />
    <glyph glyph-name="seven" unicode="7" horiz-adv-x="530" 
d="M76 0l403 668h-359l10 56h447l1 -2l-435 -722h-67z" />
    <glyph glyph-name="eight" unicode="8" horiz-adv-x="598" 
d="M51 181q0 77 48.5 132.5t128.5 75.5v3q-41 20 -66 57.5t-25 86.5q0 87 74 146q67 53 158 53q85 0 144 -46.5t59 -126.5q0 -65 -40 -114.5t-108 -68.5v-2q50 -22 79.5 -65.5t29.5 -99.5q0 -96 -78 -162q-71 -60 -178 -60q-97 0 -161.5 51.5t-64.5 139.5zM345 405
q73 0 123 47q45 42 45 101t-43 93t-104 34q-69 0 -117 -40q-53 -43 -53 -107q0 -58 44.5 -93t104.5 -35zM112 185q0 -63 45.5 -102t120.5 -39q83 0 137 47q57 49 57 120q0 64 -49 105t-120 41q-88 0 -145 -59q-46 -48 -46 -113z" />
    <glyph glyph-name="nine" unicode="9" horiz-adv-x="559" 
d="M142 0l229 291q27 35 36 47l-2 2q-55 -37 -121 -37q-82 0 -141.5 54.5t-59.5 142.5q0 100 74 169q71 66 172 66q91 0 155.5 -55.5t64.5 -146.5q0 -67 -30.5 -125.5t-90.5 -135.5l-212 -272h-74zM300 356q75 0 131 51q55 51 55 122q0 65 -45 108t-116 43q-73 0 -127 -49
q-54 -51 -54 -126q0 -67 44 -108t112 -41z" />
    <glyph glyph-name="colon" unicode=":" horiz-adv-x="296" 
d="M109 -11q-21 0 -34.5 14t-13.5 34q0 22 15 36.5t37 14.5q21 0 34.5 -14t13.5 -34q0 -22 -15 -36.5t-37 -14.5zM183 404q-21 0 -34.5 14t-13.5 34q0 22 15 36.5t37 14.5q21 0 34.5 -14t13.5 -34q0 -22 -15 -36.5t-37 -14.5z" />
    <glyph glyph-name="semicolon" unicode=";" horiz-adv-x="296" 
d="M183 404q-21 0 -34.5 14t-13.5 34q0 22 15 36.5t37 14.5q21 0 34.5 -14t13.5 -34q0 -22 -15 -36.5t-37 -14.5zM3 -147l105 273h63l-124 -273h-44z" />
    <glyph glyph-name="less" unicode="&#x3c;" horiz-adv-x="662" 
d="M109 344l6 36l519 218l-9 -53l-435 -183v-2l369 -184l-9 -51z" />
    <glyph glyph-name="equal" unicode="=" horiz-adv-x="576" 
d="M54 240l8 48h467l-8 -48h-467zM89 436l8 48h467l-8 -48h-467z" />
    <glyph glyph-name="greater" unicode="&#x3e;" horiz-adv-x="662" 
d="M595 379l-6 -36l-519 -218l9 53l435 183v2l-369 184l9 51z" />
    <glyph glyph-name="question" unicode="?" horiz-adv-x="468" 
d="M213 188h-54l29 167q96 0 163 44.5t67 126.5q0 68 -47.5 110t-120.5 42q-59 0 -115 -28l11 64q50 21 107 21q96 0 161 -57t65 -149q0 -94 -68 -154.5t-172 -69.5zM159 -11q-20 0 -33.5 13.5t-13.5 33.5q0 21 15 35.5t36 14.5q20 0 33.5 -13.5t13.5 -33.5q0 -21 -15 -35.5
t-36 -14.5z" />
    <glyph glyph-name="at" unicode="@" horiz-adv-x="800" 
d="M41 213q0 105 49 198t139.5 150.5t200.5 57.5q145 0 241 -94t96 -238q0 -96 -44 -164.5t-120 -68.5q-79 0 -103 63h-2q-61 -64 -140 -64q-63 0 -102.5 43.5t-39.5 112.5q0 89 61.5 159.5t156.5 70.5q73 0 140 -46l-34 -193q-5 -28 -5 -41q0 -32 19 -50.5t51 -18.5
q60 0 92.5 56.5t32.5 135.5q0 127 -84 214t-216 87q-148 0 -250 -108t-102 -259q0 -135 84.5 -221t216.5 -86q104 0 191 58l16 -31q-93 -63 -208 -63q-145 0 -241 96t-96 244zM366 94q35 0 69 17.5t57 47.5q0 18 5 48l29 165q-48 26 -91 26q-75 0 -124 -58t-49 -130
q0 -52 28 -84t76 -32z" />
    <glyph glyph-name="A" unicode="A" horiz-adv-x="674" 
d="M-32 0l423 724h59l169 -724h-63l-49 216h-349l-124 -216h-66zM494 272l-44 193q-24 105 -41 183h-2q-55 -98 -103 -181l-113 -195h303z" />
    <glyph glyph-name="B" unicode="B" horiz-adv-x="618" 
d="M46 0l128 724h183q118 0 176 -42q63 -46 63 -129q0 -66 -41 -115.5t-109 -65.5v-2q56 -17 88.5 -58.5t32.5 -99.5q0 -91 -69 -152q-67 -60 -213 -60h-239zM177 397h186q68 0 120 37.5t52 106.5q0 61 -46 95q-42 32 -140 32h-124zM117 56h178q115 0 166 48q45 42 45 107
q0 61 -47 98t-121 37h-170z" />
    <glyph glyph-name="C" unicode="C" horiz-adv-x="670" 
d="M69 305q0 85 32.5 168.5t94.5 145.5q114 116 289 116q103 0 196 -45l-11 -64q-87 52 -190 52q-145 0 -241 -96q-53 -53 -81 -125t-28 -146q0 -121 75 -193t210 -72q97 0 177 39l-12 -66q-74 -30 -170 -30q-154 0 -247.5 84t-93.5 232z" />
    <glyph glyph-name="D" unicode="D" horiz-adv-x="727" 
d="M174 724h165q176 0 274 -96q91 -91 91 -229q0 -72 -26.5 -143.5t-79.5 -128.5q-117 -127 -328 -127h-224zM333 668h-108l-108 -612h157q185 0 284 112q85 98 85 226q0 117 -75 192q-80 82 -235 82z" />
    <glyph glyph-name="E" unicode="E" horiz-adv-x="551" 
d="M46 0l128 724h400l-10 -56h-339l-47 -264h296l-10 -56h-296l-51 -292h348l-10 -56h-409z" />
    <glyph glyph-name="F" unicode="F" horiz-adv-x="554" 
d="M46 0l128 724h405l-10 -56h-344l-49 -278h306l-10 -56h-306l-59 -334h-61z" />
    <glyph glyph-name="G" unicode="G" horiz-adv-x="727" 
d="M397 -11q-148 0 -239 85.5t-91 232.5q0 89 35.5 175.5t102.5 148.5q114 104 276 104q109 0 219 -55l-11 -64q-98 62 -212 62q-135 0 -230 -87q-57 -53 -88 -127t-31 -152q0 -121 72.5 -194t200.5 -73q83 0 153 29l39 217h-176l10 56h236l-55 -314q-95 -44 -211 -44z" />
    <glyph glyph-name="H" unicode="H" horiz-adv-x="729" 
d="M46 0l128 724h61l-56 -320h428l56 320h61l-128 -724h-61l61 348h-428l-61 -348h-61z" />
    <glyph glyph-name="I" unicode="I" horiz-adv-x="240" 
d="M46 0l128 724h61l-128 -724h-61z" />
    <glyph glyph-name="J" unicode="J" horiz-adv-x="379" 
d="M374 724l-97 -549q-16 -89 -46 -127q-46 -59 -132 -59q-58 0 -112 25l10 59q58 -29 104 -29q55 0 79.5 35t36.5 103l96 542h61z" />
    <glyph glyph-name="K" unicode="K" horiz-adv-x="608" 
d="M46 0l128 724h61l-58 -326h2l399 326h80l-412 -336l305 -388h-75l-299 384h-2l-68 -384h-61z" />
    <glyph glyph-name="L" unicode="L" horiz-adv-x="537" 
d="M46 0l128 724h61l-118 -668h359l-10 -56h-420z" />
    <glyph glyph-name="M" unicode="M" horiz-adv-x="847" 
d="M179 421l-74 -421h-59l128 724h54l205 -404l346 404h63l-128 -724h-61l74 421q18 105 37 203h-2q-25 -29 -71.5 -84.5t-61.5 -72.5l-211 -246l-121 239q-38 74 -81 164h-2q-22 -128 -35 -203z" />
    <glyph glyph-name="N" unicode="N" horiz-adv-x="754" 
d="M105 0h-59l128 724h56l234 -423q53 -96 113 -207h2q21 122 42 240l69 390h59l-128 -724h-56l-234 423q-53 96 -113 207h-2q-21 -122 -42 -240z" />
    <glyph glyph-name="O" unicode="O" horiz-adv-x="802" 
d="M449 735q140 0 232.5 -93t92.5 -242q0 -156 -95 -274q-111 -137 -285 -137q-140 0 -232.5 93t-92.5 242q0 156 95 274q111 137 285 137zM397 46q144 0 234 114q82 101 82 236q0 122 -73.5 202t-193.5 80q-144 0 -234 -114q-82 -101 -82 -236q0 -122 73.5 -202t193.5 -80z
" />
    <glyph glyph-name="P" unicode="P" horiz-adv-x="608" 
d="M46 0l128 724h185q137 0 201 -60q56 -51 56 -133q0 -96 -68 -160q-72 -69 -221 -69h-167l-53 -302h-61zM170 356h165q121 0 173 53q47 49 47 116q0 60 -40 97q-49 46 -157 46h-133z" />
    <glyph glyph-name="Q" unicode="Q" horiz-adv-x="802" 
d="M449 735q140 0 232.5 -93t92.5 -242q0 -156 -95 -274q-91 -113 -232 -133v-2q116 -80 247 -123l-64 -36q-148 57 -273 159q-127 12 -207.5 103t-80.5 230q0 156 95 274q111 137 285 137zM397 46q144 0 234 114q82 101 82 236q0 122 -73.5 202t-193.5 80q-144 0 -234 -114
q-82 -101 -82 -236q0 -122 73.5 -202t193.5 -80z" />
    <glyph glyph-name="R" unicode="R" horiz-adv-x="620" 
d="M46 0l128 724h186q129 0 190 -54q56 -48 56 -131q0 -89 -63 -149q-55 -52 -153 -63l157 -327h-68l-153 324h-162l-57 -324h-61zM174 376h167q109 0 160 50q44 44 44 107q0 60 -42 96q-48 39 -149 39h-129z" />
    <glyph glyph-name="S" unicode="S" horiz-adv-x="542" 
d="M30 66l12 70q43 -41 100.5 -65.5t114.5 -24.5q75 0 122 39q50 42 50 111q0 29 -9.5 50.5t-34 39.5t-44 28t-61.5 29q-44 20 -66 32t-50.5 34t-41 51t-12.5 68q0 87 62 146q64 61 166 61q112 0 203 -66l-12 -66q-92 75 -196 75q-73 0 -117 -40q-45 -40 -45 -103
q0 -28 9.5 -49t33.5 -38.5t43.5 -27.5t61.5 -29q43 -19 67 -32.5t51.5 -35.5t40 -52t12.5 -69q0 -97 -74 -159q-64 -54 -162 -54q-127 0 -224 77z" />
    <glyph glyph-name="T" unicode="T" horiz-adv-x="638" 
d="M245 0l118 668h-245l10 56h551l-10 -56h-245l-118 -668h-61z" />
    <glyph glyph-name="U" unicode="U" horiz-adv-x="710" 
d="M84 219q0 50 14 128l66 377h61l-66 -377q-13 -72 -13 -120q0 -86 45.5 -133.5t139.5 -47.5q124 0 187 87q43 58 69 202l69 389h59l-70 -395q-29 -162 -82 -232q-81 -108 -236 -108q-117 0 -180 62t-63 168z" />
    <glyph glyph-name="V" unicode="V" horiz-adv-x="636" 
d="M413 307l230 417h66l-402 -724h-62l-149 724h63l85 -419q26 -129 44 -224h2q55 103 123 226z" />
    <glyph glyph-name="W" unicode="W" horiz-adv-x="988" 
d="M198 0l-101 724h63l56 -410q16 -117 28 -222h2q63 133 108 224l201 408h45l59 -418q17 -123 28 -214h2q32 70 101 212l205 420h65l-354 -724h-63l-59 418q-13 89 -24 185h-2q-41 -87 -88 -183l-207 -420h-65z" />
    <glyph glyph-name="X" unicode="X" horiz-adv-x="641" 
d="M217 197l-169 -197h-73l331 384l-172 340h67l75 -150q50 -100 73 -148h2q54 66 117 140l135 158h73l-292 -341l196 -383h-68l-96 189q-39 76 -76 152h-2q-51 -63 -121 -144z" />
    <glyph glyph-name="Y" unicode="Y" horiz-adv-x="631" 
d="M477 543l156 181h72l-343 -396l-58 -328h-61l58 327l-206 397h68l93 -181q47 -90 82 -162h2q57 69 137 162z" />
    <glyph glyph-name="Z" unicode="Z" horiz-adv-x="578" 
d="M-26 0l-1 2l545 664l-1 2h-402l10 56h513l1 -2l-545 -664l1 -2h423l-10 -56h-534z" />
    <glyph glyph-name="bracketleft" unicode="[" horiz-adv-x="319" 
d="M72 -165h145l-8 -48h-200l169 956h200l-8 -48h-146z" />
    <glyph glyph-name="backslash" unicode="\" horiz-adv-x="434" 
d="M308 -38l-189 800h48l189 -800h-48z" />
    <glyph glyph-name="bracketright" unicode="]" horiz-adv-x="319" 
d="M254 695h-145l8 48h200l-169 -956h-200l8 48h146z" />
    <glyph glyph-name="asciicircum" unicode="^" horiz-adv-x="575" 
d="M99 362l252 373h45l121 -373h-50l-102 309h-1l-212 -309h-53z" />
    <glyph glyph-name="underscore" unicode="_" horiz-adv-x="453" 
d="M-61 -97h453l-7 -37h-453z" />
    <glyph glyph-name="grave" unicode="`" 
d="M305 563l-76 164h64l57 -164h-45z" />
    <glyph glyph-name="a" unicode="a" horiz-adv-x="583" 
d="M530 442l-78 -442h-59l10 57l-2 1q-77 -69 -161 -69q-80 0 -135.5 56t-55.5 152q0 59 22 119t66 105q78 82 195 82q98 0 198 -61zM415 124l50 286q-63 40 -138 40q-91 0 -151 -66q-68 -77 -68 -183q0 -75 40.5 -117.5t101.5 -42.5q84 0 165 83z" />
    <glyph glyph-name="b" unicode="b" horiz-adv-x="576" 
d="M183 453l2 -1q67 51 145 51q85 0 141.5 -58.5t56.5 -155.5q0 -127 -84 -214q-83 -86 -222 -86q-95 0 -174 33l131 742h59zM320 450q-75 0 -148 -59l-58 -329q60 -21 116 -21q110 0 174 70q65 71 65 174q0 75 -41.5 120t-107.5 45z" />
    <glyph glyph-name="c" unicode="c" horiz-adv-x="502" 
d="M50 207q0 60 23.5 120.5t71.5 104.5q79 71 190 71q77 0 142 -34l-10 -59q-67 39 -135 39q-88 0 -147 -56q-35 -33 -55.5 -81.5t-20.5 -100.5q0 -77 45.5 -122.5t126.5 -45.5q77 0 139 34l-11 -61q-55 -27 -133 -27q-99 0 -162.5 58t-63.5 160z" />
    <glyph glyph-name="d" unicode="d" horiz-adv-x="582" 
d="M402 57l-2 1q-75 -69 -160 -69q-81 0 -136 56t-55 153q0 128 84 220q78 85 195 85q81 0 144 -42l2 1l53 302h59l-135 -764h-59zM108 203q0 -76 40 -119t102 -43q82 0 164 82l50 283q-62 45 -138 45q-94 0 -154 -70q-64 -75 -64 -178z" />
    <glyph glyph-name="e" unicode="e" horiz-adv-x="550" 
d="M49 213q0 112 69 197q76 93 192 93q87 0 141 -55.5t54 -147.5q0 -38 -8 -70h-390v-14q0 -82 51 -128t133 -46q74 0 148 39l-11 -61q-60 -31 -142 -31q-101 0 -169 59t-68 165zM160 376q-33 -42 -46 -97h335q1 9 1 19q0 66 -36 109t-107 43q-89 0 -147 -74z" />
    <glyph glyph-name="f" unicode="f" horiz-adv-x="323" 
d="M151 492l24 134q15 80 55 114q39 35 105 35q35 0 76 -11l-9 -55q-36 12 -68 12q-43 0 -66 -22q-25 -22 -36 -83l-22 -124h135l-9 -52h-135l-78 -440h-59l78 440h-83l9 52h83z" />
    <glyph glyph-name="g" unicode="g" horiz-adv-x="576" 
d="M49 207q0 58 22 115.5t63 99.5q78 81 197 81q98 0 193 -54l-82 -464q-38 -216 -249 -216q-94 0 -173 45l11 61q79 -52 165 -52q72 0 121.5 39.5t64.5 121.5l13 71l-2 1q-69 -56 -147 -56q-84 0 -140.5 56t-56.5 151zM108 211q0 -74 41 -116.5t107 -42.5q77 0 150 63
l53 301q-60 34 -133 34q-92 0 -152 -65q-66 -72 -66 -174z" />
    <glyph glyph-name="h" unicode="h" horiz-adv-x="587" 
d="M44 0l135 764h59l-60 -341l2 -1q97 81 192 81q66 0 105.5 -38.5t39.5 -106.5q0 -25 -9 -79l-49 -279h-59l49 277q9 49 9 72q0 45 -25 72t-76 27q-83 0 -192 -95l-62 -353h-59z" />
    <glyph glyph-name="i" unicode="i" horiz-adv-x="234" 
d="M44 0l87 492h59l-87 -492h-59zM188 618q-19 0 -31 12.5t-12 30.5q0 20 14 34t34 14q19 0 31 -12.5t12 -30.5q0 -20 -14 -34t-34 -14z" />
    <glyph glyph-name="j" unicode="j" horiz-adv-x="234" 
d="M32 -79l101 571h59l-102 -578q-13 -70 -40 -100q-39 -45 -106 -45q-37 0 -67 11l9 54q40 -11 60 -11q39 0 58 24.5t28 73.5zM190 618q-19 0 -31 12.5t-12 30.5q0 20 14 34t34 14q19 0 31 -12.5t12 -30.5q0 -20 -14 -34t-34 -14z" />
    <glyph glyph-name="k" unicode="k" horiz-adv-x="505" 
d="M44 0l135 764h59l-85 -481h2l290 209h83l-307 -220l227 -272h-74l-222 268h-2l-47 -268h-59z" />
    <glyph glyph-name="l" unicode="l" horiz-adv-x="234" 
d="M238 764l-135 -764h-59l135 764h59z" />
    <glyph glyph-name="m" unicode="m" horiz-adv-x="926" 
d="M44 0l87 492h59l-13 -73l2 -1q96 85 188 85q53 0 89.5 -26.5t47.5 -72.5q110 99 208 99q65 0 104 -37.5t39 -101.5q0 -28 -9 -77l-51 -287h-59l50 284q8 45 8 70q0 43 -24.5 68.5t-71.5 25.5q-85 0 -189 -97q-1 -24 -9 -64l-51 -287h-59l50 284q8 45 8 70
q0 43 -24.5 68.5t-71.5 25.5q-83 0 -187 -97l-62 -351h-59z" />
    <glyph glyph-name="n" unicode="n" horiz-adv-x="588" 
d="M44 0l87 492h59l-12 -69l2 -1q97 81 192 81q66 0 105.5 -38.5t39.5 -106.5q0 -25 -9 -79l-49 -279h-59l49 277q9 49 9 72q0 45 -25 72t-76 27q-83 0 -192 -95l-62 -353h-59z" />
    <glyph glyph-name="o" unicode="o" horiz-adv-x="590" 
d="M279 43q83 0 138 58q65 68 65 169q0 78 -46 128.5t-125 50.5q-83 0 -138 -58q-65 -68 -65 -169q0 -78 46 -128.5t125 -50.5zM277 -11q-101 0 -164.5 63.5t-63.5 165.5q0 123 81 208q74 77 183 77q101 0 164.5 -63.5t63.5 -165.5q0 -123 -81 -208q-74 -77 -183 -77z" />
    <glyph glyph-name="p" unicode="p" horiz-adv-x="577" 
d="M529 283q0 -58 -21 -115t-61 -98q-76 -81 -197 -81q-81 0 -141 38l-2 -1l-43 -246h-59l126 712h59l-7 -39l2 -1q67 51 143 51q87 0 144 -60.5t57 -159.5zM470 280q0 77 -42 123.5t-111 46.5q-78 0 -145 -58l-55 -310q61 -41 137 -41q93 0 152 65q64 70 64 174z" />
    <glyph glyph-name="q" unicode="q" horiz-adv-x="579" 
d="M529 460l-120 -680h-59l46 260l-2 1q-62 -52 -147 -52q-84 0 -141 58t-57 155q0 58 22 116.5t64 101.5q81 83 211 83q97 0 183 -43zM407 106l56 318q-59 27 -123 27q-102 0 -165 -68q-67 -75 -67 -178q0 -75 41.5 -119t106.5 -44q79 0 151 64z" />
    <glyph glyph-name="r" unicode="r" horiz-adv-x="360" 
d="M176 415l1 -1q76 83 168 83q17 0 29 -3l-10 -58q-12 2 -28 2q-92 0 -173 -95l-60 -343h-59l87 492h59z" />
    <glyph glyph-name="s" unicode="s" horiz-adv-x="471" 
d="M19 48l11 63q37 -32 89.5 -50.5t104.5 -18.5q58 0 92 25q35 26 35 69q0 17 -8 31t-16 21.5t-30 16t-31.5 11t-38.5 9.5t-47.5 12.5t-41.5 16.5t-36 23t-22.5 31.5t-9.5 44.5q0 71 56 113q49 37 130 37q102 0 181 -50l-10 -57q-78 54 -179 54q-55 0 -85 -23
q-34 -26 -34 -67q0 -35 27 -50.5t84 -30.5q9 -2 14 -3q35 -9 58 -17.5t48 -23.5t37.5 -38t12.5 -53q0 -76 -61 -120q-48 -35 -128 -35q-119 0 -202 59z" />
    <glyph glyph-name="t" unicode="t" horiz-adv-x="366" 
d="M101 115q0 28 8 73l44 252h-97l9 52h97l25 141l59 3l-25 -144h159l-9 -52h-159l-44 -250q-8 -46 -8 -66q0 -39 21.5 -60t60.5 -21q32 0 60 11l-10 -56q-29 -9 -58 -9q-57 0 -95 32t-38 94z" />
    <glyph glyph-name="u" unicode="u" horiz-adv-x="585" 
d="M68 132q0 33 9 84l49 276h58l-48 -274q-8 -46 -8 -76q0 -45 24.5 -72t74.5 -27q88 0 193 97l62 352h59l-87 -492h-59l12 70l-2 1q-98 -82 -189 -82q-66 0 -107 38.5t-41 104.5z" />
    <glyph glyph-name="v" unicode="v" horiz-adv-x="533" 
d="M344 258l139 234h63l-293 -492h-59l-120 492h63l56 -234q18 -73 42 -184h2q38 68 107 184z" />
    <glyph glyph-name="w" unicode="w" horiz-adv-x="808" 
d="M428 492h41l46 -249q15 -79 29 -162h2q28 56 86 168l127 243h63l-261 -492h-58l-45 243q-16 87 -25 145h-2q-32 -62 -80 -150l-128 -238h-61l-89 492h63l43 -246q16 -94 27 -165h2q32 62 86 162z" />
    <glyph glyph-name="x" unicode="x" horiz-adv-x="483" 
d="M357 409l78 83h70l-223 -236l152 -256h-67l-57 97q-49 84 -71 123h-2q-36 -40 -108 -117l-97 -103h-70l243 257l-140 235h67l50 -85q34 -59 66 -114h2q52 58 107 116z" />
    <glyph glyph-name="y" unicode="y" horiz-adv-x="533" 
d="M363 302l123 190h64l-464 -712h-66l183 276l-131 436h63l56 -188q29 -98 53 -185h2q37 59 117 183z" />
    <glyph glyph-name="z" unicode="z" horiz-adv-x="481" 
d="M-15 0l-1 2l393 435l-1 2h-288l9 53h400l1 -2l-393 -435l1 -2h310l-9 -53h-422z" />
    <glyph glyph-name="braceleft" unicode="{" horiz-adv-x="345" 
d="M83 -60l37 209q4 21 4 41q0 27 -14.5 39t-52.5 12h-28l8 48h33q48 0 65 21t26 70l40 227q13 75 47 111t98 36q35 0 67 -10l-8 -46q-24 8 -56 8q-43 0 -64 -24.5t-31 -82.5l-39 -221q-8 -48 -25 -76t-53 -37v-1q42 -16 42 -70q0 -17 -6 -53l-35 -199q-6 -33 -6 -52
q0 -36 19 -51t58 -15q24 0 42 3l-8 -48q-16 -3 -40 -3q-126 0 -126 107q0 25 6 57z" />
    <glyph glyph-name="bar" unicode="|" horiz-adv-x="316" 
d="M51 -220l180 1020h49l-180 -1020h-49z" />
    <glyph glyph-name="braceright" unicode="}" horiz-adv-x="345" 
d="M269 590l-37 -209q-4 -21 -4 -41q0 -27 14.5 -39t52.5 -12h28l-8 -48h-33q-48 0 -65 -21t-26 -70l-40 -227q-13 -75 -47 -111t-98 -36q-35 0 -67 10l8 46q24 -8 56 -8q43 0 64 24.5t31 82.5l39 221q8 48 25 76t53 37v1q-42 16 -42 70q0 17 6 53l35 199q6 33 6 52
q0 36 -19 51t-58 15q-24 0 -42 -3l8 48q17 3 40 3q126 0 126 -107q0 -25 -6 -57z" />
    <glyph glyph-name="asciitilde" unicode="~" horiz-adv-x="545" 
d="M279 340q-57 34 -91 34q-57 0 -97 -66l-2 1l13 72q38 44 94 44q7 0 13.5 -0.5t13.5 -2.5t12 -3t13 -4.5t11.5 -5t12 -6t11 -6t12.5 -7t12 -6.5q57 -34 91 -34q57 0 97 66l2 -1l-13 -72q-38 -44 -94 -44q-20 0 -41 6.5t-33 13t-37 21.5z" />
    <glyph glyph-name="uni00A0" unicode="&#xa0;" horiz-adv-x="240" 
 />
    <glyph glyph-name="exclamdown" unicode="&#xa1;" horiz-adv-x="310" 
d="M180 282l-76 -514h-67l105 514h38zM194 503q20 0 33.5 -13.5t13.5 -33.5q0 -21 -15 -35.5t-36 -14.5q-20 0 -33.5 13.5t-13.5 33.5q0 21 15 35.5t36 14.5z" />
    <glyph glyph-name="cent" unicode="&#xa2;" horiz-adv-x="512" 
d="M67 323q0 60 23.5 120.5t71.5 104.5q67 59 156 69l23 125h49l-22 -124q69 -3 126 -33l-10 -59q-67 39 -135 39q-88 0 -147 -56q-35 -33 -55.5 -81.5t-20.5 -100.5q0 -77 45.5 -122.5t126.5 -45.5q77 0 139 34l-11 -61q-59 -28 -149 -27l-22 -123h-49l23 130
q-74 17 -118 72t-44 139z" />
    <glyph glyph-name="sterling" unicode="&#xa3;" horiz-adv-x="548" 
d="M86 323l9 50h66q-14 100 -14 127q0 106 65.5 170.5t170.5 64.5q93 0 164 -49l-11 -65q-73 57 -155 57q-80 0 -126.5 -47.5t-46.5 -128.5q0 -22 14 -129h192l-9 -50h-178q1 -8 1 -22q0 -74 -29 -137.5t-78 -105.5l1 -2h349l-10 -56h-432l8 48q130 98 130 251q0 16 -1 24
h-80z" />
    <glyph glyph-name="currency" unicode="&#xa4;" horiz-adv-x="584" 
d="M150 333q0 -64 42 -106t107 -42q72 0 122.5 53t50.5 129q0 64 -42 106t-107 42q-72 0 -122.5 -53t-50.5 -129zM101 330q0 91 62 159l-56 71l44 34l54 -68q55 37 121 37q80 0 135 -50l94 81l31 -40l-92 -80q27 -46 27 -104q0 -91 -62 -159l56 -71l-44 -34l-54 68
q-55 -37 -121 -37q-80 0 -135 50l-94 -81l-31 40l92 80q-27 46 -27 104z" />
    <glyph glyph-name="yen" unicode="&#xa5;" horiz-adv-x="649" 
d="M491 578l126 146h72l-223 -257h133l-8 -48h-167l-47 -55l-15 -84h205l-9 -49h-204l-41 -231h-61l41 231h-205l9 49h204l15 83l-29 56h-165l8 48h132l-133 257h68l76 -148q27 -53 80 -159h2q62 75 136 161z" />
    <glyph glyph-name="brokenbar" unicode="&#xa6;" horiz-adv-x="316" 
d="M120 172h49l-69 -392h-49zM162 408l69 392h49l-69 -392h-49z" />
    <glyph glyph-name="section" unicode="&#xa7;" horiz-adv-x="548" 
d="M65 -45q73 -57 155 -57q56 0 92.5 29t36.5 79q0 24 -7.5 41.5t-29.5 34.5t-39.5 27.5t-59.5 32.5q-36 19 -55.5 31t-43.5 32.5t-35 45.5t-11 57q0 59 38 101t98 56v2q-46 43 -46 102q0 69 51.5 115t131.5 46q77 0 149 -43l-10 -57q-67 46 -140 46q-52 0 -88 -27.5
t-36 -76.5q0 -41 29 -66t104 -64q37 -19 59 -33t45.5 -34.5t34 -46.5t10.5 -58q0 -60 -35.5 -102t-95.5 -56v-2q40 -40 40 -100q0 -74 -53 -120t-135 -46q-88 0 -165 51zM306 404q-17 8 -49 26q-55 -6 -93 -34.5t-38 -80.5q0 -24 8.5 -43t29.5 -35.5t38 -26.5t53 -29
q57 -31 62 -34q53 6 88 37t35 80q0 25 -9 45t-31 37.5t-40.5 28.5t-53.5 29z" />
    <glyph glyph-name="dieresis" unicode="&#xa8;" 
d="M217 604q-17 0 -28 11t-11 28q0 18 13 30.5t31 12.5q16 0 27.5 -11t11.5 -28q0 -18 -13 -30.5t-31 -12.5zM399 604q-17 0 -28 11t-11 28q0 18 13 30.5t31 12.5q16 0 27.5 -11t11.5 -28q0 -18 -13 -30.5t-31 -12.5z" />
    <glyph glyph-name="copyright" unicode="&#xa9;" horiz-adv-x="818" 
d="M61 362q0 158 105.5 265.5t263.5 107.5t263.5 -107.5t105.5 -265.5t-105.5 -265.5t-263.5 -107.5t-263.5 107.5t-105.5 265.5zM97 362q0 -144 94 -241t239 -97t239 97t94 241t-94 241t-239 97t-239 -97t-94 -241zM240 365q0 88 58.5 147t149.5 59q58 0 108 -26v-47
q-49 32 -109 32q-72 0 -117.5 -46.5t-45.5 -117.5t46 -116.5t118 -45.5q66 0 114 37v-48q-48 -30 -116 -30q-90 0 -148 57.5t-58 144.5z" />
    <glyph glyph-name="ordfeminine" unicode="&#xaa;" horiz-adv-x="387" 
d="M226 401q-56 0 -93 38t-37 101q0 77 51.5 136t131.5 59q69 0 133 -48l-49 -279h-46l5 28l-2 1q-42 -36 -94 -36zM237 443q52 0 93 41l32 181q-43 28 -87 28q-57 0 -95 -45.5t-38 -103.5q0 -46 26 -73.5t69 -27.5z" />
    <glyph glyph-name="guillemotleft" unicode="&#xab;" horiz-adv-x="534" 
d="M177 27l-131 230l202 208h58l-207 -213l130 -225h-52zM372 27l-131 230l202 208h58l-207 -213l130 -225h-52z" />
    <glyph glyph-name="logicalnot" unicode="&#xac;" horiz-adv-x="576" 
d="M71 338l8 48h467l-48 -270h-50l39 222h-416z" />
    <glyph glyph-name="uni00AD" unicode="&#xad;" horiz-adv-x="353" 
d="M63 251l9 52h228l-9 -52h-228z" />
    <glyph glyph-name="registered" unicode="&#xae;" horiz-adv-x="418" 
d="M76 549q0 80 53 133t134 53t134 -53t53 -133t-53 -133t-134 -53t-134 53t-53 133zM100 549q0 -71 46 -117t117 -46t117 46t46 117t-46 117t-117 46t-117 -46t-46 -117zM316 448l-51 77h-40v-77h-28v202h67q34 0 55 -16.5t21 -46.5q0 -43 -47 -58l55 -81h-32zM225 549h39
q47 0 47 38q0 17 -12.5 27.5t-34.5 10.5h-39v-76z" />
    <glyph glyph-name="macron" unicode="&#xaf;" 
d="M175 622l8 46h263l-8 -46h-263z" />
    <glyph glyph-name="degree" unicode="&#xb0;" horiz-adv-x="342" 
d="M231 441q-64 0 -106.5 42.5t-42.5 104.5t42.5 104.5t106.5 42.5t106.5 -42.5t42.5 -104.5t-42.5 -104.5t-106.5 -42.5zM231 475q49 0 81.5 32.5t32.5 80.5t-32.5 80.5t-81.5 32.5t-81.5 -32.5t-32.5 -80.5t32.5 -80.5t81.5 -32.5z" />
    <glyph glyph-name="plusminus" unicode="&#xb1;" horiz-adv-x="576" 
d="M48 135h441l-8 -48h-441zM311 238h-49l34 192h-196l8 48h196l34 192h49l-34 -192h196l-8 -48h-196z" />
    <glyph glyph-name="two.superior" unicode="&#xb2;" horiz-adv-x="352" 
d="M335 748q0 35 -23.5 52.5t-62.5 17.5q-55 0 -102 -38l10 56q44 27 98 27q55 0 92.5 -29t37.5 -83q0 -45 -26 -84t-77 -88l-118 -110l1 -2h189l-8 -45h-294l-1 2l188 176q49 46 72.5 79.5t23.5 68.5z" />
    <glyph glyph-name="three.superior" unicode="&#xb3;" horiz-adv-x="336" 
d="M75 458l9 53q53 -51 120 -51q46 0 76 24q31 24 31 62q0 34 -29 53.5t-72 19.5h-41l7 41h43q54 0 87 33q23 25 23 53q0 34 -25 53t-64 19q-48 0 -87 -24l9 49q38 19 83 19q54 0 93.5 -27.5t39.5 -79.5q0 -44 -27 -74q-24 -26 -65 -39v-2q34 -11 54.5 -35.5t20.5 -59.5
q0 -55 -50 -95q-45 -35 -110 -35q-75 0 -126 43z" />
    <glyph glyph-name="acute" unicode="&#xb4;" 
d="M422 727l-134 -164h-47l115 164h66z" />
    <glyph glyph-name="mu" unicode="&#xb5;" horiz-adv-x="608" 
d="M527 0h-59v70l-2 1q-86 -82 -187 -82q-76 0 -114 41l-2 -1l6 -249h-62v712h59v-286q0 -91 31 -126q33 -37 93 -37q92 0 178 91v358h59v-492z" />
    <glyph glyph-name="paragraph" unicode="&#xb6;" horiz-adv-x="545" 
d="M159 -220l103 582q-66 4 -107.5 48.5t-41.5 109.5q0 78 60.5 141t142.5 63h198l-166 -944h-50l158 897h-89l-158 -897h-50z" />
    <glyph glyph-name="periodcentered" unicode="&#xb7;" horiz-adv-x="296" 
d="M156 252q-21 0 -35 14t-14 34q0 22 15.5 37t37.5 15q21 0 35 -14t14 -34q0 -22 -15.5 -37t-37.5 -15z" />
    <glyph glyph-name="cedilla" unicode="&#xb8;" 
d="M147 -77l48 99l31 -11l-30 -63q74 -21 74 -81q0 -38 -28 -63t-71 -25q-41 0 -82 25l17 35q37 -24 65 -24q22 0 40 13t18 35q0 45 -82 60z" />
    <glyph glyph-name="one.superior" unicode="&#xb9;" horiz-adv-x="315" 
d="M191 422l66 376l-115 -38l8 47l169 56l-80 -441h-48z" />
    <glyph glyph-name="ordmasculine" unicode="&#xba;" horiz-adv-x="411" 
d="M98 551q0 76 49 130t125 54q66 0 109.5 -41t43.5 -109q0 -76 -49 -130t-125 -54q-66 0 -109.5 41t-43.5 109zM379 581q0 48 -29 80t-79 32q-54 0 -90.5 -40t-36.5 -98q0 -48 29 -80t79 -32q54 0 90.5 40t36.5 98z" />
    <glyph glyph-name="guillemotright" unicode="&#xbb;" horiz-adv-x="534" 
d="M162 465l131 -230l-202 -208h-58l207 213l-130 225h52zM357 465l131 -230l-202 -208h-58l207 213l-130 225h52z" />
    <glyph glyph-name="onequarter" unicode="&#xbc;" horiz-adv-x="912" 
d="M186 -13h-58l604 737h58zM674 274l-109 -121l1 -2h148l17 97q14 76 21 111l-2 1q-28 -32 -76 -86zM688 0l19 110h-231l-1 2l290 322h47l-50 -283h84l-7 -41h-84l-19 -110h-48zM177 294l66 376l-115 -38l8 47l169 56l-80 -441h-48z" />
    <glyph glyph-name="onehalf" unicode="&#xbd;" horiz-adv-x="957" 
d="M838 326q0 35 -23.5 52.5t-62.5 17.5q-55 0 -102 -38l10 56q44 27 98 27q55 0 92.5 -29t37.5 -83q0 -45 -26 -84t-77 -88l-118 -110l1 -2h189l-8 -45h-294l-1 2l188 176q49 46 72.5 79.5t23.5 68.5zM186 -13h-58l604 737h58zM177 294l66 376l-115 -38l8 47l169 56
l-80 -441h-48z" />
    <glyph glyph-name="threequarters" unicode="&#xbe;" horiz-adv-x="972" 
d="M79 330l9 53q53 -51 120 -51q46 0 76 24q31 24 31 62q0 34 -29 53.5t-72 19.5h-41l7 41h43q54 0 87 33q23 25 23 53q0 34 -25 53t-64 19q-48 0 -87 -24l9 49q38 19 83 19q54 0 93.5 -27.5t39.5 -79.5q0 -44 -27 -74q-24 -26 -65 -39v-2q34 -11 54.5 -35.5t20.5 -59.5
q0 -55 -50 -95q-45 -35 -110 -35q-75 0 -126 43zM734 274l-109 -121l1 -2h148l17 97q14 76 21 111l-2 1q-28 -32 -76 -86zM748 0l19 110h-231l-1 2l290 322h47l-50 -283h84l-7 -41h-84l-19 -110h-48zM246 -13h-58l604 737h58z" />
    <glyph glyph-name="questiondown" unicode="&#xbf;" horiz-adv-x="468" 
d="M259 304h54l-29 -167q-96 0 -163 -44.5t-67 -126.5q0 -68 47.5 -110t120.5 -42q59 0 115 28l-11 -64q-50 -21 -107 -21q-96 0 -161 57t-65 149q0 94 68 154.5t172 69.5zM313 503q20 0 33.5 -13.5t13.5 -33.5q0 -21 -15 -35.5t-36 -14.5q-20 0 -33.5 13.5t-13.5 33.5
q0 21 15 35.5t36 14.5z" />
    <glyph glyph-name="Agrave" unicode="&#xc0;" horiz-adv-x="674" 
d="M-32 0l423 724h59l169 -724h-63l-49 216h-349l-124 -216h-66zM494 272l-44 193q-24 105 -41 183h-2q-55 -98 -103 -181l-113 -195h303zM443 795l-76 164h64l57 -164h-45z" />
    <glyph glyph-name="Aacute" unicode="&#xc1;" horiz-adv-x="674" 
d="M-32 0l423 724h59l169 -724h-63l-49 216h-349l-124 -216h-66zM494 272l-44 193q-24 105 -41 183h-2q-55 -98 -103 -181l-113 -195h303zM560 959l-134 -164h-47l115 164h66z" />
    <glyph glyph-name="Acircumflex" unicode="&#xc2;" horiz-adv-x="674" 
d="M-32 0l423 724h59l169 -724h-63l-49 216h-349l-124 -216h-66zM494 272l-44 193q-24 105 -41 183h-2q-55 -98 -103 -181l-113 -195h303zM287 795l145 164h63l87 -164h-47l-77 125l-118 -125h-53z" />
    <glyph glyph-name="Atilde" unicode="&#xc3;" horiz-adv-x="674" 
d="M-32 0l423 724h59l169 -724h-63l-49 216h-349l-124 -216h-66zM494 272l-44 193q-24 105 -41 183h-2q-55 -98 -103 -181l-113 -195h303zM438 857q-41 24 -64 24q-45 0 -78 -51l-2 1l10 59q27 40 79 40q28 0 77 -28q41 -24 64 -24q45 0 78 51l2 -1l-10 -59q-27 -40 -79 -40
q-28 0 -77 28z" />
    <glyph glyph-name="Adieresis" unicode="&#xc4;" horiz-adv-x="674" 
d="M-32 0l423 724h59l169 -724h-63l-49 216h-349l-124 -216h-66zM494 272l-44 193q-24 105 -41 183h-2q-55 -98 -103 -181l-113 -195h303zM355 836q-17 0 -28 11t-11 28q0 18 13 30.5t31 12.5q16 0 27.5 -11t11.5 -28q0 -18 -13 -30.5t-31 -12.5zM537 836q-17 0 -28 11
t-11 28q0 18 13 30.5t31 12.5q16 0 27.5 -11t11.5 -28q0 -18 -13 -30.5t-31 -12.5z" />
    <glyph glyph-name="Aring" unicode="&#xc5;" horiz-adv-x="674" 
d="M-32 0l423 724h59l169 -724h-63l-49 216h-349l-124 -216h-66zM494 272l-44 193q-24 105 -41 183h-2q-55 -98 -103 -181l-113 -195h303zM446 822q32 0 55 23.5t23 58.5q0 28 -17.5 48t-49.5 20t-55 -23.5t-23 -58.5q0 -28 17.5 -48t49.5 -20zM445 786q-45 0 -74.5 28.5
t-29.5 73.5q0 48 34 84t83 36q45 0 74.5 -28.5t29.5 -73.5q0 -48 -34 -84t-83 -36z" />
    <glyph glyph-name="AE" unicode="&#xc6;" horiz-adv-x="904" 
d="M467 271l36 204q24 134 36 198h-2q-59 -81 -128 -174l-170 -228h228zM-30 0l537 724h420l-10 -56h-319l-47 -264h276l-10 -56h-276l-51 -292h328l-10 -56h-389l38 217h-258l-162 -217h-67z" />
    <glyph glyph-name="Ccedilla" unicode="&#xc7;" horiz-adv-x="670" 
d="M302 -77l34 72q-122 18 -194.5 99.5t-72.5 210.5q0 85 32.5 168.5t94.5 145.5q114 116 289 116q103 0 196 -45l-11 -64q-87 52 -190 52q-145 0 -241 -96q-53 -53 -81 -125t-28 -146q0 -121 75 -193t210 -72q97 0 177 39l-12 -66q-74 -30 -170 -30q-13 0 -39 2l-20 -43
q74 -21 74 -81q0 -38 -28 -63t-71 -25q-41 0 -82 25l17 35q37 -24 65 -24q22 0 40 13t18 35q0 45 -82 60z" />
    <glyph glyph-name="Egrave" unicode="&#xc8;" horiz-adv-x="551" 
d="M46 0l128 724h400l-10 -56h-339l-47 -264h296l-10 -56h-296l-51 -292h348l-10 -56h-409zM395 795l-76 164h64l57 -164h-45z" />
    <glyph glyph-name="Eacute" unicode="&#xc9;" horiz-adv-x="551" 
d="M46 0l128 724h400l-10 -56h-339l-47 -264h296l-10 -56h-296l-51 -292h348l-10 -56h-409zM512 959l-134 -164h-47l115 164h66z" />
    <glyph glyph-name="Ecircumflex" unicode="&#xca;" horiz-adv-x="551" 
d="M46 0l128 724h400l-10 -56h-339l-47 -264h296l-10 -56h-296l-51 -292h348l-10 -56h-409zM239 795l145 164h63l87 -164h-47l-77 125l-118 -125h-53z" />
    <glyph glyph-name="Edieresis" unicode="&#xcb;" horiz-adv-x="551" 
d="M46 0l128 724h400l-10 -56h-339l-47 -264h296l-10 -56h-296l-51 -292h348l-10 -56h-409zM307 836q-17 0 -28 11t-11 28q0 18 13 30.5t31 12.5q16 0 27.5 -11t11.5 -28q0 -18 -13 -30.5t-31 -12.5zM489 836q-17 0 -28 11t-11 28q0 18 13 30.5t31 12.5q16 0 27.5 -11
t11.5 -28q0 -18 -13 -30.5t-31 -12.5z" />
    <glyph glyph-name="Igrave" unicode="&#xcc;" horiz-adv-x="240" 
d="M46 0l128 724h61l-128 -724h-61zM226 795l-76 164h64l57 -164h-45z" />
    <glyph glyph-name="Iacute" unicode="&#xcd;" horiz-adv-x="240" 
d="M46 0l128 724h61l-128 -724h-61zM343 959l-134 -164h-47l115 164h66z" />
    <glyph glyph-name="Icircumflex" unicode="&#xce;" horiz-adv-x="240" 
d="M46 0l128 724h61l-128 -724h-61zM70 795l145 164h63l87 -164h-47l-77 125l-118 -125h-53z" />
    <glyph glyph-name="Idieresis" unicode="&#xcf;" horiz-adv-x="240" 
d="M46 0l128 724h61l-128 -724h-61zM138 836q-16 0 -27.5 11t-11.5 28q0 18 13 30.5t31 12.5q17 0 28 -11t11 -28q0 -18 -13 -30.5t-31 -12.5zM320 836q-16 0 -27.5 11t-11.5 28q0 18 13 30.5t31 12.5q17 0 28 -11t11 -28q0 -18 -13 -30.5t-31 -12.5z" />
    <glyph glyph-name="Eth" unicode="&#xd0;" horiz-adv-x="737" 
d="M32 344l9 51h85l58 329h165q176 0 274 -96q91 -91 91 -229q0 -72 -26.5 -143.5t-79.5 -128.5q-117 -127 -328 -127h-224l61 344h-85zM343 668h-108l-48 -273h174l-9 -51h-174l-51 -288h157q185 0 284 112q85 98 85 226q0 117 -75 192q-80 82 -235 82z" />
    <glyph glyph-name="Ntilde" unicode="&#xd1;" horiz-adv-x="754" 
d="M105 0h-59l128 724h56l234 -423q53 -96 113 -207h2q21 122 42 240l69 390h59l-128 -724h-56l-234 423q-53 96 -113 207h-2q-21 -122 -42 -240zM478 857q-41 24 -64 24q-45 0 -78 -51l-2 1l10 59q27 40 79 40q28 0 77 -28q41 -24 64 -24q45 0 78 51l2 -1l-10 -59
q-27 -40 -79 -40q-28 0 -77 28z" />
    <glyph glyph-name="Ograve" unicode="&#xd2;" horiz-adv-x="802" 
d="M449 735q140 0 232.5 -93t92.5 -242q0 -156 -95 -274q-111 -137 -285 -137q-140 0 -232.5 93t-92.5 242q0 156 95 274q111 137 285 137zM397 46q144 0 234 114q82 101 82 236q0 122 -73.5 202t-193.5 80q-144 0 -234 -114q-82 -101 -82 -236q0 -122 73.5 -202t193.5 -80z
M507 795l-76 164h64l57 -164h-45z" />
    <glyph glyph-name="Oacute" unicode="&#xd3;" horiz-adv-x="802" 
d="M449 735q140 0 232.5 -93t92.5 -242q0 -156 -95 -274q-111 -137 -285 -137q-140 0 -232.5 93t-92.5 242q0 156 95 274q111 137 285 137zM397 46q144 0 234 114q82 101 82 236q0 122 -73.5 202t-193.5 80q-144 0 -234 -114q-82 -101 -82 -236q0 -122 73.5 -202t193.5 -80z
M624 959l-134 -164h-47l115 164h66z" />
    <glyph glyph-name="Ocircumflex" unicode="&#xd4;" horiz-adv-x="802" 
d="M449 735q140 0 232.5 -93t92.5 -242q0 -156 -95 -274q-111 -137 -285 -137q-140 0 -232.5 93t-92.5 242q0 156 95 274q111 137 285 137zM397 46q144 0 234 114q82 101 82 236q0 122 -73.5 202t-193.5 80q-144 0 -234 -114q-82 -101 -82 -236q0 -122 73.5 -202t193.5 -80z
M351 795l145 164h63l87 -164h-47l-77 125l-118 -125h-53z" />
    <glyph glyph-name="Otilde" unicode="&#xd5;" horiz-adv-x="802" 
d="M449 735q140 0 232.5 -93t92.5 -242q0 -156 -95 -274q-111 -137 -285 -137q-140 0 -232.5 93t-92.5 242q0 156 95 274q111 137 285 137zM397 46q144 0 234 114q82 101 82 236q0 122 -73.5 202t-193.5 80q-144 0 -234 -114q-82 -101 -82 -236q0 -122 73.5 -202t193.5 -80z
M502 857q-41 24 -64 24q-45 0 -78 -51l-2 1l10 59q27 40 79 40q28 0 77 -28q41 -24 64 -24q45 0 78 51l2 -1l-10 -59q-27 -40 -79 -40q-28 0 -77 28z" />
    <glyph glyph-name="Odieresis" unicode="&#xd6;" horiz-adv-x="802" 
d="M449 735q140 0 232.5 -93t92.5 -242q0 -156 -95 -274q-111 -137 -285 -137q-140 0 -232.5 93t-92.5 242q0 156 95 274q111 137 285 137zM397 46q144 0 234 114q82 101 82 236q0 122 -73.5 202t-193.5 80q-144 0 -234 -114q-82 -101 -82 -236q0 -122 73.5 -202t193.5 -80z
M419 836q-17 0 -28 11t-11 28q0 18 13 30.5t31 12.5q16 0 27.5 -11t11.5 -28q0 -18 -13 -30.5t-31 -12.5zM601 836q-17 0 -28 11t-11 28q0 18 13 30.5t31 12.5q16 0 27.5 -11t11.5 -28q0 -18 -13 -30.5t-31 -12.5z" />
    <glyph glyph-name="multiply" unicode="&#xd7;" horiz-adv-x="576" 
d="M540 529l-198 -169l137 -168l-38 -34l-137 169l-198 -169l-29 36l198 169l-137 168l38 34l137 -169l198 169z" />
    <glyph glyph-name="Oslash" unicode="&#xd8;" horiz-adv-x="802" 
d="M130 328q0 -97 48 -170l456 445q-73 75 -188 75q-144 0 -234 -114q-82 -101 -82 -236zM69 324q0 156 95 274q111 137 285 137q137 0 228 -89l93 90l34 -35l-95 -92q65 -87 65 -209q0 -156 -95 -274q-111 -137 -285 -137q-137 0 -228 89l-93 -90l-34 35l95 92
q-65 87 -65 209zM713 396q0 97 -48 170l-456 -445q73 -75 188 -75q144 0 234 114q82 101 82 236z" />
    <glyph glyph-name="Ugrave" unicode="&#xd9;" horiz-adv-x="710" 
d="M84 219q0 50 14 128l66 377h61l-66 -377q-13 -72 -13 -120q0 -86 45.5 -133.5t139.5 -47.5q124 0 187 87q43 58 69 202l69 389h59l-70 -395q-29 -162 -82 -232q-81 -108 -236 -108q-117 0 -180 62t-63 168zM462 795l-76 164h64l57 -164h-45z" />
    <glyph glyph-name="Uacute" unicode="&#xda;" horiz-adv-x="710" 
d="M84 219q0 50 14 128l66 377h61l-66 -377q-13 -72 -13 -120q0 -86 45.5 -133.5t139.5 -47.5q124 0 187 87q43 58 69 202l69 389h59l-70 -395q-29 -162 -82 -232q-81 -108 -236 -108q-117 0 -180 62t-63 168zM579 959l-134 -164h-47l115 164h66z" />
    <glyph glyph-name="Ucircumflex" unicode="&#xdb;" horiz-adv-x="710" 
d="M84 219q0 50 14 128l66 377h61l-66 -377q-13 -72 -13 -120q0 -86 45.5 -133.5t139.5 -47.5q124 0 187 87q43 58 69 202l69 389h59l-70 -395q-29 -162 -82 -232q-81 -108 -236 -108q-117 0 -180 62t-63 168zM306 795l145 164h63l87 -164h-47l-77 125l-118 -125h-53z" />
    <glyph glyph-name="Udieresis" unicode="&#xdc;" horiz-adv-x="710" 
d="M84 219q0 50 14 128l66 377h61l-66 -377q-13 -72 -13 -120q0 -86 45.5 -133.5t139.5 -47.5q124 0 187 87q43 58 69 202l69 389h59l-70 -395q-29 -162 -82 -232q-81 -108 -236 -108q-117 0 -180 62t-63 168zM374 836q-16 0 -27.5 11t-11.5 28q0 18 13 30.5t31 12.5
q17 0 28 -11t11 -28q0 -18 -13 -30.5t-31 -12.5zM556 836q-16 0 -27.5 11t-11.5 28q0 18 13 30.5t31 12.5q17 0 28 -11t11 -28q0 -18 -13 -30.5t-31 -12.5z" />
    <glyph glyph-name="Yacute" unicode="&#xdd;" horiz-adv-x="631" 
d="M477 543l156 181h72l-343 -396l-58 -328h-61l58 327l-206 397h68l93 -181q47 -90 82 -162h2q57 69 137 162zM540 959l-134 -164h-47l115 164h66z" />
    <glyph glyph-name="Thorn" unicode="&#xde;" horiz-adv-x="608" 
d="M134 153l-27 -153h-61l128 724h61l-26 -149h124q135 0 200 -60q57 -52 57 -134q0 -97 -67 -161q-70 -67 -223 -67h-166zM144 207h164q120 0 173 53q48 48 48 116q0 60 -40 97q-49 46 -157 46h-133z" />
    <glyph glyph-name="germandbls" unicode="&#xdf;" horiz-adv-x="581" 
d="M487 139q0 21 -6.5 36t-25 28.5t-32 20.5t-48.5 23q-66 31 -96.5 59.5t-30.5 79.5q0 76 62 117.5t147 41.5q15 0 24 -1q20 48 20 83q0 41 -25 65q-32 29 -101 29q-77 0 -117 -34q-39 -33 -53 -109l-102 -578h-59l103 582q18 103 76 148q57 45 156 45q97 0 142 -42
q39 -36 39 -98q0 -66 -46 -144q-25 3 -46 3q-38 0 -71 -7.5t-60.5 -32t-27.5 -62.5q0 -35 23 -54t85 -47q36 -17 53 -26.5t38 -27t29.5 -39.5t8.5 -52q0 -78 -61 -122q-48 -35 -128 -35q-94 0 -171 40l11 59q72 -46 163 -46q58 0 92 25q35 26 35 72z" />
    <glyph glyph-name="agrave" unicode="&#xe0;" horiz-adv-x="583" 
d="M530 442l-78 -442h-59l10 57l-2 1q-77 -69 -161 -69q-80 0 -135.5 56t-55.5 152q0 59 22 119t66 105q78 82 195 82q98 0 198 -61zM415 124l50 286q-63 40 -138 40q-91 0 -151 -66q-68 -77 -68 -183q0 -75 40.5 -117.5t101.5 -42.5q84 0 165 83zM362 563l-76 164h64
l57 -164h-45z" />
    <glyph glyph-name="aacute" unicode="&#xe1;" horiz-adv-x="583" 
d="M530 442l-78 -442h-59l10 57l-2 1q-77 -69 -161 -69q-80 0 -135.5 56t-55.5 152q0 59 22 119t66 105q78 82 195 82q98 0 198 -61zM415 124l50 286q-63 40 -138 40q-91 0 -151 -66q-68 -77 -68 -183q0 -75 40.5 -117.5t101.5 -42.5q84 0 165 83zM478 727l-134 -164h-47
l115 164h66z" />
    <glyph glyph-name="acircumflex" unicode="&#xe2;" horiz-adv-x="583" 
d="M530 442l-78 -442h-59l10 57l-2 1q-77 -69 -161 -69q-80 0 -135.5 56t-55.5 152q0 59 22 119t66 105q78 82 195 82q98 0 198 -61zM415 124l50 286q-63 40 -138 40q-91 0 -151 -66q-68 -77 -68 -183q0 -75 40.5 -117.5t101.5 -42.5q84 0 165 83zM205 563l145 164h63
l87 -164h-47l-77 125l-118 -125h-53z" />
    <glyph glyph-name="atilde" unicode="&#xe3;" horiz-adv-x="583" 
d="M530 442l-78 -442h-59l10 57l-2 1q-77 -69 -161 -69q-80 0 -135.5 56t-55.5 152q0 59 22 119t66 105q78 82 195 82q98 0 198 -61zM415 124l50 286q-63 40 -138 40q-91 0 -151 -66q-68 -77 -68 -183q0 -75 40.5 -117.5t101.5 -42.5q84 0 165 83zM356 625q-41 24 -64 24
q-45 0 -78 -51l-2 1l10 59q27 40 79 40q28 0 77 -28q41 -24 64 -24q45 0 78 51l2 -1l-10 -59q-27 -40 -79 -40q-28 0 -77 28z" />
    <glyph glyph-name="adieresis" unicode="&#xe4;" horiz-adv-x="583" 
d="M530 442l-78 -442h-59l10 57l-2 1q-77 -69 -161 -69q-80 0 -135.5 56t-55.5 152q0 59 22 119t66 105q78 82 195 82q98 0 198 -61zM415 124l50 286q-63 40 -138 40q-91 0 -151 -66q-68 -77 -68 -183q0 -75 40.5 -117.5t101.5 -42.5q84 0 165 83zM273 604q-17 0 -28 11
t-11 28q0 18 13 30.5t31 12.5q16 0 27.5 -11t11.5 -28q0 -18 -13 -30.5t-31 -12.5zM455 604q-17 0 -28 11t-11 28q0 18 13 30.5t31 12.5q16 0 27.5 -11t11.5 -28q0 -18 -13 -30.5t-31 -12.5z" />
    <glyph glyph-name="aring" unicode="&#xe5;" horiz-adv-x="583" 
d="M530 442l-78 -442h-59l10 57l-2 1q-77 -69 -161 -69q-80 0 -135.5 56t-55.5 152q0 59 22 119t66 105q78 82 195 82q98 0 198 -61zM415 124l50 286q-63 40 -138 40q-91 0 -151 -66q-68 -77 -68 -183q0 -75 40.5 -117.5t101.5 -42.5q84 0 165 83zM364 590q32 0 55 23.5
t23 58.5q0 28 -17.5 48t-49.5 20t-55 -23.5t-23 -58.5q0 -28 17.5 -48t49.5 -20zM363 554q-45 0 -74.5 28.5t-29.5 73.5q0 48 34 84t83 36q45 0 74.5 -28.5t29.5 -73.5q0 -48 -34 -84t-83 -36z" />
    <glyph glyph-name="ae" unicode="&#xe6;" horiz-adv-x="901" 
d="M250 -11q-87 0 -144 58.5t-57 155.5q0 128 84 216q79 84 215 84q81 0 157 -31l-10 -56l2 -1q63 88 172 88q82 0 134.5 -55.5t52.5 -146.5q0 -33 -8 -71h-380v-13q0 -82 50 -128.5t129 -46.5q75 0 143 40l-11 -62q-59 -31 -137 -31q-63 0 -115.5 24.5t-82.5 72.5
q-81 -97 -194 -97zM259 42q98 0 163 90q-11 36 -11 78q0 26 5 56l29 165q-50 20 -103 20q-107 0 -169 -68q-65 -71 -65 -175q0 -75 41.5 -120.5t109.5 -45.5zM521 376q-31 -40 -46 -97h325q1 5 1 18q0 66 -34.5 109.5t-102.5 43.5q-86 0 -143 -74z" />
    <glyph glyph-name="ccedilla" unicode="&#xe7;" horiz-adv-x="502" 
d="M197 -78l34 71q-81 12 -131 68t-50 146q0 60 23.5 120.5t71.5 104.5q79 71 190 71q77 0 142 -34l-10 -59q-67 39 -135 39q-88 0 -147 -56q-35 -33 -55.5 -81.5t-20.5 -100.5q0 -77 45.5 -122.5t126.5 -45.5q77 0 139 34l-11 -61q-55 -27 -133 -27h-10l-20 -42
q74 -21 74 -81q0 -38 -28 -63t-71 -25q-41 0 -82 25l17 35q37 -24 65 -24q22 0 40 13t18 35q0 45 -82 60z" />
    <glyph glyph-name="egrave" unicode="&#xe8;" horiz-adv-x="550" 
d="M49 213q0 112 69 197q76 93 192 93q87 0 141 -55.5t54 -147.5q0 -38 -8 -70h-390v-14q0 -82 51 -128t133 -46q74 0 148 39l-11 -61q-60 -31 -142 -31q-101 0 -169 59t-68 165zM160 376q-33 -42 -46 -97h335q1 9 1 19q0 66 -36 109t-107 43q-89 0 -147 -74zM345 563
l-76 164h64l57 -164h-45z" />
    <glyph glyph-name="eacute" unicode="&#xe9;" horiz-adv-x="550" 
d="M49 213q0 112 69 197q76 93 192 93q87 0 141 -55.5t54 -147.5q0 -38 -8 -70h-390v-14q0 -82 51 -128t133 -46q74 0 148 39l-11 -61q-60 -31 -142 -31q-101 0 -169 59t-68 165zM160 376q-33 -42 -46 -97h335q1 9 1 19q0 66 -36 109t-107 43q-89 0 -147 -74zM462 727
l-134 -164h-47l115 164h66z" />
    <glyph glyph-name="ecircumflex" unicode="&#xea;" horiz-adv-x="550" 
d="M49 213q0 112 69 197q76 93 192 93q87 0 141 -55.5t54 -147.5q0 -38 -8 -70h-390v-14q0 -82 51 -128t133 -46q74 0 148 39l-11 -61q-60 -31 -142 -31q-101 0 -169 59t-68 165zM160 376q-33 -42 -46 -97h335q1 9 1 19q0 66 -36 109t-107 43q-89 0 -147 -74zM189 563
l145 164h63l87 -164h-47l-77 125l-118 -125h-53z" />
    <glyph glyph-name="edieresis" unicode="&#xeb;" horiz-adv-x="550" 
d="M49 213q0 112 69 197q76 93 192 93q87 0 141 -55.5t54 -147.5q0 -38 -8 -70h-390v-14q0 -82 51 -128t133 -46q74 0 148 39l-11 -61q-60 -31 -142 -31q-101 0 -169 59t-68 165zM160 376q-33 -42 -46 -97h335q1 9 1 19q0 66 -36 109t-107 43q-89 0 -147 -74zM257 604
q-17 0 -28 11t-11 28q0 18 13 30.5t31 12.5q16 0 27.5 -11t11.5 -28q0 -18 -13 -30.5t-31 -12.5zM439 604q-17 0 -28 11t-11 28q0 18 13 30.5t31 12.5q16 0 27.5 -11t11.5 -28q0 -18 -13 -30.5t-31 -12.5z" />
    <glyph glyph-name="igrave" unicode="&#xec;" horiz-adv-x="234" 
d="M44 0l87 492h59l-87 -492h-59zM182 563l-76 164h64l57 -164h-45z" />
    <glyph glyph-name="iacute" unicode="&#xed;" horiz-adv-x="234" 
d="M44 0l87 492h59l-87 -492h-59zM299 727l-134 -164h-47l115 164h66z" />
    <glyph glyph-name="icircumflex" unicode="&#xee;" horiz-adv-x="234" 
d="M44 0l87 492h59l-87 -492h-59zM26 563l145 164h63l87 -164h-47l-77 125l-118 -125h-53z" />
    <glyph glyph-name="idieresis" unicode="&#xef;" horiz-adv-x="234" 
d="M44 0l87 492h59l-87 -492h-59zM94 604q-16 0 -27.5 11t-11.5 28q0 18 13 30.5t31 12.5q17 0 28 -11t11 -28q0 -18 -13 -30.5t-31 -12.5zM276 604q-16 0 -27.5 11t-11.5 28q0 18 13 30.5t31 12.5q17 0 28 -11t11 -28q0 -18 -13 -30.5t-31 -12.5z" />
    <glyph glyph-name="eth" unicode="&#xf0;" horiz-adv-x="611" 
d="M233 552l-2 48l125 38q-46 48 -99 82l41 37q66 -45 117 -100l109 33l2 -48l-78 -24q101 -134 101 -308q0 -155 -80 -241q-75 -80 -186 -80q-97 0 -161 63t-64 161q0 56 22 111.5t63 94.5q70 67 168 67q54 0 101.5 -23t68.5 -60l2 1q-27 111 -93 196zM117 217
q0 -77 45.5 -125.5t123.5 -48.5q80 0 135 55q65 65 65 162q0 75 -46.5 124t-125.5 49q-78 0 -131 -51q-66 -63 -66 -165z" />
    <glyph glyph-name="ntilde" unicode="&#xf1;" horiz-adv-x="588" 
d="M44 0l87 492h59l-12 -69l2 -1q97 81 192 81q66 0 105.5 -38.5t39.5 -106.5q0 -25 -9 -79l-49 -279h-59l49 277q9 49 9 72q0 45 -25 72t-76 27q-83 0 -192 -95l-62 -353h-59zM354 625q-41 24 -64 24q-45 0 -78 -51l-2 1l10 59q27 40 79 40q28 0 77 -28q41 -24 64 -24
q45 0 78 51l2 -1l-10 -59q-27 -40 -79 -40q-28 0 -77 28z" />
    <glyph glyph-name="ograve" unicode="&#xf2;" horiz-adv-x="590" 
d="M279 43q83 0 138 58q65 68 65 169q0 78 -46 128.5t-125 50.5q-83 0 -138 -58q-65 -68 -65 -169q0 -78 46 -128.5t125 -50.5zM277 -11q-101 0 -164.5 63.5t-63.5 165.5q0 123 81 208q74 77 183 77q101 0 164.5 -63.5t63.5 -165.5q0 -123 -81 -208q-74 -77 -183 -77z
M360 563l-76 164h64l57 -164h-45z" />
    <glyph glyph-name="oacute" unicode="&#xf3;" horiz-adv-x="590" 
d="M279 43q83 0 138 58q65 68 65 169q0 78 -46 128.5t-125 50.5q-83 0 -138 -58q-65 -68 -65 -169q0 -78 46 -128.5t125 -50.5zM277 -11q-101 0 -164.5 63.5t-63.5 165.5q0 123 81 208q74 77 183 77q101 0 164.5 -63.5t63.5 -165.5q0 -123 -81 -208q-74 -77 -183 -77z
M477 727l-134 -164h-47l115 164h66z" />
    <glyph glyph-name="ocircumflex" unicode="&#xf4;" horiz-adv-x="590" 
d="M279 43q83 0 138 58q65 68 65 169q0 78 -46 128.5t-125 50.5q-83 0 -138 -58q-65 -68 -65 -169q0 -78 46 -128.5t125 -50.5zM277 -11q-101 0 -164.5 63.5t-63.5 165.5q0 123 81 208q74 77 183 77q101 0 164.5 -63.5t63.5 -165.5q0 -123 -81 -208q-74 -77 -183 -77z
M204 563l145 164h63l87 -164h-47l-77 125l-118 -125h-53z" />
    <glyph glyph-name="otilde" unicode="&#xf5;" horiz-adv-x="590" 
d="M279 43q83 0 138 58q65 68 65 169q0 78 -46 128.5t-125 50.5q-83 0 -138 -58q-65 -68 -65 -169q0 -78 46 -128.5t125 -50.5zM277 -11q-101 0 -164.5 63.5t-63.5 165.5q0 123 81 208q74 77 183 77q101 0 164.5 -63.5t63.5 -165.5q0 -123 -81 -208q-74 -77 -183 -77z
M355 625q-41 24 -64 24q-45 0 -78 -51l-2 1l10 59q27 40 79 40q28 0 77 -28q41 -24 64 -24q45 0 78 51l2 -1l-10 -59q-27 -40 -79 -40q-28 0 -77 28z" />
    <glyph glyph-name="odieresis" unicode="&#xf6;" horiz-adv-x="590" 
d="M279 43q83 0 138 58q65 68 65 169q0 78 -46 128.5t-125 50.5q-83 0 -138 -58q-65 -68 -65 -169q0 -78 46 -128.5t125 -50.5zM277 -11q-101 0 -164.5 63.5t-63.5 165.5q0 123 81 208q74 77 183 77q101 0 164.5 -63.5t63.5 -165.5q0 -123 -81 -208q-74 -77 -183 -77z
M272 604q-16 0 -27.5 11t-11.5 28q0 18 13 30.5t31 12.5q17 0 28 -11t11 -28q0 -18 -13 -30.5t-31 -12.5zM454 604q-16 0 -27.5 11t-11.5 28q0 18 13 30.5t31 12.5q17 0 28 -11t11 -28q0 -18 -13 -30.5t-31 -12.5z" />
    <glyph glyph-name="divide" unicode="&#xf7;" horiz-adv-x="576" 
d="M71 338l8 48h467l-8 -48h-467zM344 536q-18 0 -30.5 12.5t-12.5 30.5q0 19 13.5 33t33.5 14q18 0 30.5 -12.5t12.5 -30.5q0 -19 -13.5 -33t-33.5 -14zM273 188q18 0 30.5 -12.5t12.5 -30.5q0 -19 -14 -33t-33 -14q-18 0 -30.5 12.5t-12.5 30.5q0 19 14 33t33 14z" />
    <glyph glyph-name="oslash" unicode="&#xf8;" horiz-adv-x="590" 
d="M108 222q0 -58 26 -101l296 283q-47 45 -119 45q-83 0 -138 -58q-65 -68 -65 -169zM49 218q0 123 81 208q74 77 183 77q96 0 159 -58l61 58l30 -30l-63 -60q41 -58 41 -139q0 -123 -81 -208q-74 -77 -183 -77q-96 0 -159 58l-61 -58l-30 30l63 60q-41 58 -41 139z
M482 270q0 58 -26 101l-296 -283q47 -45 119 -45q83 0 138 58q65 68 65 169z" />
    <glyph glyph-name="ugrave" unicode="&#xf9;" horiz-adv-x="585" 
d="M68 132q0 33 9 84l49 276h58l-48 -274q-8 -46 -8 -76q0 -45 24.5 -72t74.5 -27q88 0 193 97l62 352h59l-87 -492h-59l12 70l-2 1q-98 -82 -189 -82q-66 0 -107 38.5t-41 104.5zM357 563l-76 164h64l57 -164h-45z" />
    <glyph glyph-name="uacute" unicode="&#xfa;" horiz-adv-x="585" 
d="M68 132q0 33 9 84l49 276h58l-48 -274q-8 -46 -8 -76q0 -45 24.5 -72t74.5 -27q88 0 193 97l62 352h59l-87 -492h-59l12 70l-2 1q-98 -82 -189 -82q-66 0 -107 38.5t-41 104.5zM474 727l-134 -164h-47l115 164h66z" />
    <glyph glyph-name="ucircumflex" unicode="&#xfb;" horiz-adv-x="585" 
d="M68 132q0 33 9 84l49 276h58l-48 -274q-8 -46 -8 -76q0 -45 24.5 -72t74.5 -27q88 0 193 97l62 352h59l-87 -492h-59l12 70l-2 1q-98 -82 -189 -82q-66 0 -107 38.5t-41 104.5zM201 563l145 164h63l87 -164h-47l-77 125l-118 -125h-53z" />
    <glyph glyph-name="udieresis" unicode="&#xfc;" horiz-adv-x="585" 
d="M68 132q0 33 9 84l49 276h58l-48 -274q-8 -46 -8 -76q0 -45 24.5 -72t74.5 -27q88 0 193 97l62 352h59l-87 -492h-59l12 70l-2 1q-98 -82 -189 -82q-66 0 -107 38.5t-41 104.5zM269 604q-17 0 -28 11t-11 28q0 18 13 30.5t31 12.5q16 0 27.5 -11t11.5 -28
q0 -18 -13 -30.5t-31 -12.5zM451 604q-17 0 -28 11t-11 28q0 18 13 30.5t31 12.5q16 0 27.5 -11t11.5 -28q0 -18 -13 -30.5t-31 -12.5z" />
    <glyph glyph-name="yacute" unicode="&#xfd;" horiz-adv-x="533" 
d="M363 302l123 190h64l-464 -712h-66l183 276l-131 436h63l56 -188q29 -98 53 -185h2q37 59 117 183zM448 727l-134 -164h-47l115 164h66z" />
    <glyph glyph-name="thorn" unicode="&#xfe;" horiz-adv-x="577" 
d="M5 -220l174 984h59l-54 -309l2 -1q71 49 143 49q86 0 143 -59.5t57 -157.5q0 -128 -83 -214q-80 -83 -204 -83q-71 0 -133 30l-2 -1l-43 -238h-59zM172 393l-56 -319q59 -33 129 -33q99 0 160 67q65 71 65 173q0 77 -42 123t-110 46q-77 0 -146 -57z" />
    <glyph glyph-name="ydieresis" unicode="&#xff;" horiz-adv-x="533" 
d="M363 302l123 190h64l-464 -712h-66l183 276l-131 436h63l56 -188q29 -98 53 -185h2q37 59 117 183zM243 604q-17 0 -28 11t-11 28q0 18 13 30.5t31 12.5q16 0 27.5 -11t11.5 -28q0 -18 -13 -30.5t-31 -12.5zM425 604q-17 0 -28 11t-11 28q0 18 13 30.5t31 12.5
q16 0 27.5 -11t11.5 -28q0 -18 -13 -30.5t-31 -12.5z" />
    <glyph glyph-name="Amacron" unicode="&#x100;" horiz-adv-x="674" 
d="M-32 0l423 724h59l169 -724h-63l-49 216h-349l-124 -216h-66zM494 272l-44 193q-24 105 -41 183h-2q-55 -98 -103 -181l-113 -195h303zM313 854l8 46h263l-8 -46h-263z" />
    <glyph glyph-name="amacron" unicode="&#x101;" horiz-adv-x="583" 
d="M530 442l-78 -442h-59l10 57l-2 1q-77 -69 -161 -69q-80 0 -135.5 56t-55.5 152q0 59 22 119t66 105q78 82 195 82q98 0 198 -61zM415 124l50 286q-63 40 -138 40q-91 0 -151 -66q-68 -77 -68 -183q0 -75 40.5 -117.5t101.5 -42.5q84 0 165 83zM231 622l8 46h263l-8 -46
h-263z" />
    <glyph glyph-name="Abreve" unicode="&#x102;" horiz-adv-x="674" 
d="M-32 0l423 724h59l169 -724h-63l-49 216h-349l-124 -216h-66zM494 272l-44 193q-24 105 -41 183h-2q-55 -98 -103 -181l-113 -195h303zM442 805q-52 0 -82 31.5t-30 81.5q0 12 2 30h40q-2 -14 -2 -25q0 -34 18.5 -56.5t57.5 -22.5q80 0 105 104h39q-11 -66 -51 -104.5
t-97 -38.5z" />
    <glyph glyph-name="abreve" unicode="&#x103;" horiz-adv-x="583" 
d="M530 442l-78 -442h-59l10 57l-2 1q-77 -69 -161 -69q-80 0 -135.5 56t-55.5 152q0 59 22 119t66 105q78 82 195 82q98 0 198 -61zM415 124l50 286q-63 40 -138 40q-91 0 -151 -66q-68 -77 -68 -183q0 -75 40.5 -117.5t101.5 -42.5q84 0 165 83zM360 573q-52 0 -82 31.5
t-30 81.5q0 12 2 30h40q-2 -14 -2 -25q0 -34 18.5 -56.5t57.5 -22.5q80 0 105 104h39q-11 -66 -51 -104.5t-97 -38.5z" />
    <glyph glyph-name="Aogonek" unicode="&#x104;" horiz-adv-x="674" 
d="M-32 0l423 724h59l169 -724q-46 -24 -79.5 -61.5t-33.5 -78.5q0 -47 53 -47q11 0 27 2l-7 -43q-12 -3 -27 -3q-42 0 -70 22t-28 63q0 42 27.5 82.5t72.5 71.5l-47 208h-349l-124 -216h-66zM494 272l-44 193q-24 105 -41 183h-2q-55 -98 -103 -181l-113 -195h303z" />
    <glyph glyph-name="aogonek" unicode="&#x105;" horiz-adv-x="583" 
d="M530 442l-78 -442q-114 -70 -114 -139q0 -22 13.5 -35.5t40.5 -13.5q11 0 27 2l-7 -42q-10 -3 -29 -3q-40 0 -68 22t-28 63q0 78 106 150l10 53l-2 1q-77 -69 -161 -69q-80 0 -135.5 56t-55.5 152q0 59 22 119t66 105q78 82 195 82q98 0 198 -61zM415 124l50 286
q-63 40 -138 40q-91 0 -151 -66q-68 -77 -68 -183q0 -75 40.5 -117.5t101.5 -42.5q84 0 165 83z" />
    <glyph glyph-name="Cacute" unicode="&#x106;" horiz-adv-x="670" 
d="M69 305q0 85 32.5 168.5t94.5 145.5q114 116 289 116q103 0 196 -45l-11 -64q-87 52 -190 52q-145 0 -241 -96q-53 -53 -81 -125t-28 -146q0 -121 75 -193t210 -72q97 0 177 39l-12 -66q-74 -30 -170 -30q-154 0 -247.5 84t-93.5 232zM658 959l-134 -164h-47l115 164h66z
" />
    <glyph glyph-name="cacute" unicode="&#x107;" horiz-adv-x="502" 
d="M50 207q0 60 23.5 120.5t71.5 104.5q79 71 190 71q77 0 142 -34l-10 -59q-67 39 -135 39q-88 0 -147 -56q-35 -33 -55.5 -81.5t-20.5 -100.5q0 -77 45.5 -122.5t126.5 -45.5q77 0 139 34l-11 -61q-55 -27 -133 -27q-99 0 -162.5 58t-63.5 160zM499 727l-134 -164h-47
l115 164h66z" />
    <glyph glyph-name="Ccircumflex" unicode="&#x108;" horiz-adv-x="670" 
d="M69 305q0 85 32.5 168.5t94.5 145.5q114 116 289 116q103 0 196 -45l-11 -64q-87 52 -190 52q-145 0 -241 -96q-53 -53 -81 -125t-28 -146q0 -121 75 -193t210 -72q97 0 177 39l-12 -66q-74 -30 -170 -30q-154 0 -247.5 84t-93.5 232zM335 795l145 164h63l87 -164h-47
l-77 125l-118 -125h-53z" />
    <glyph glyph-name="ccircumflex" unicode="&#x109;" horiz-adv-x="502" 
d="M50 207q0 60 23.5 120.5t71.5 104.5q79 71 190 71q77 0 142 -34l-10 -59q-67 39 -135 39q-88 0 -147 -56q-35 -33 -55.5 -81.5t-20.5 -100.5q0 -77 45.5 -122.5t126.5 -45.5q77 0 139 34l-11 -61q-55 -27 -133 -27q-99 0 -162.5 58t-63.5 160zM193 563l145 164h63
l87 -164h-47l-77 125l-118 -125h-53z" />
    <glyph glyph-name="Cdotaccent" unicode="&#x10a;" horiz-adv-x="670" 
d="M69 305q0 85 32.5 168.5t94.5 145.5q114 116 289 116q103 0 196 -45l-11 -64q-87 52 -190 52q-145 0 -241 -96q-53 -53 -81 -125t-28 -146q0 -121 75 -193t210 -72q97 0 177 39l-12 -66q-74 -30 -170 -30q-154 0 -247.5 84t-93.5 232zM494 836q-16 0 -27.5 11t-11.5 28
q0 18 13 30.5t31 12.5q17 0 28 -11t11 -28q0 -18 -13 -30.5t-31 -12.5z" />
    <glyph glyph-name="cdotaccent" unicode="&#x10b;" horiz-adv-x="502" 
d="M50 207q0 60 23.5 120.5t71.5 104.5q79 71 190 71q77 0 142 -34l-10 -59q-67 39 -135 39q-88 0 -147 -56q-35 -33 -55.5 -81.5t-20.5 -100.5q0 -77 45.5 -122.5t126.5 -45.5q77 0 139 34l-11 -61q-55 -27 -133 -27q-99 0 -162.5 58t-63.5 160zM352 604q-16 0 -27.5 11
t-11.5 28q0 18 13 30.5t31 12.5q17 0 28 -11t11 -28q0 -18 -13 -30.5t-31 -12.5z" />
    <glyph glyph-name="Ccaron" unicode="&#x10c;" horiz-adv-x="670" 
d="M69 305q0 85 32.5 168.5t94.5 145.5q114 116 289 116q103 0 196 -45l-11 -64q-87 52 -190 52q-145 0 -241 -96q-53 -53 -81 -125t-28 -146q0 -121 75 -193t210 -72q97 0 177 39l-12 -66q-74 -30 -170 -30q-154 0 -247.5 84t-93.5 232zM659 959l-145 -164h-63l-87 164h47
l77 -125l118 125h53z" />
    <glyph glyph-name="ccaron" unicode="&#x10d;" horiz-adv-x="502" 
d="M50 207q0 60 23.5 120.5t71.5 104.5q79 71 190 71q77 0 142 -34l-10 -59q-67 39 -135 39q-88 0 -147 -56q-35 -33 -55.5 -81.5t-20.5 -100.5q0 -77 45.5 -122.5t126.5 -45.5q77 0 139 34l-11 -61q-55 -27 -133 -27q-99 0 -162.5 58t-63.5 160zM517 727l-145 -164h-63
l-87 164h47l77 -125l118 125h53z" />
    <glyph glyph-name="Dcaron" unicode="&#x10e;" horiz-adv-x="727" 
d="M174 724h165q176 0 274 -96q91 -91 91 -229q0 -72 -26.5 -143.5t-79.5 -128.5q-117 -127 -328 -127h-224zM333 668h-108l-108 -612h157q185 0 284 112q85 98 85 226q0 117 -75 192q-80 82 -235 82zM607 959l-145 -164h-63l-87 164h47l77 -125l118 125h53z" />
    <glyph glyph-name="dcaron" unicode="&#x10f;" horiz-adv-x="670" 
d="M402 57l-2 1q-75 -69 -160 -69q-81 0 -136 56t-55 153q0 128 84 220q78 85 195 85q81 0 144 -42l2 1l53 302h59l-135 -764h-59zM108 203q0 -76 40 -119t102 -43q82 0 164 82l50 283q-62 45 -138 45q-94 0 -154 -70q-64 -75 -64 -178zM711 764h60l-111 -218h-45z" />
    <glyph glyph-name="Dcroat" unicode="&#x110;" horiz-adv-x="737" 
d="M32 344l9 51h85l58 329h165q176 0 274 -96q91 -91 91 -229q0 -72 -26.5 -143.5t-79.5 -128.5q-117 -127 -328 -127h-224l61 344h-85zM343 668h-108l-48 -273h174l-9 -51h-174l-51 -288h157q185 0 284 112q85 98 85 226q0 117 -75 192q-80 82 -235 82z" />
    <glyph glyph-name="dcroat" unicode="&#x111;" horiz-adv-x="582" 
d="M330 598l9 49h167l21 117h59l-21 -117h89l-9 -49h-89l-105 -598h-59l10 57l-2 1q-75 -69 -160 -69q-81 0 -136 56t-55 153q0 128 84 220q78 85 195 85q81 0 144 -42l2 1l24 136h-168zM108 203q0 -76 40 -119t102 -43q82 0 164 82l50 283q-62 45 -138 45q-94 0 -154 -70
q-64 -75 -64 -178z" />
    <glyph glyph-name="Emacron" unicode="&#x112;" horiz-adv-x="551" 
d="M46 0l128 724h400l-10 -56h-339l-47 -264h296l-10 -56h-296l-51 -292h348l-10 -56h-409zM265 854l8 46h263l-8 -46h-263z" />
    <glyph glyph-name="emacron" unicode="&#x113;" horiz-adv-x="550" 
d="M49 213q0 112 69 197q76 93 192 93q87 0 141 -55.5t54 -147.5q0 -38 -8 -70h-390v-14q0 -82 51 -128t133 -46q74 0 148 39l-11 -61q-60 -31 -142 -31q-101 0 -169 59t-68 165zM160 376q-33 -42 -46 -97h335q1 9 1 19q0 66 -36 109t-107 43q-89 0 -147 -74zM215 622l8 46
h263l-8 -46h-263z" />
    <glyph glyph-name="Ebreve" unicode="&#x114;" horiz-adv-x="551" 
d="M46 0l128 724h400l-10 -56h-339l-47 -264h296l-10 -56h-296l-51 -292h348l-10 -56h-409zM394 805q-52 0 -82 31.5t-30 81.5q0 12 2 30h40q-2 -14 -2 -25q0 -34 18.5 -56.5t57.5 -22.5q80 0 105 104h39q-11 -66 -51 -104.5t-97 -38.5z" />
    <glyph glyph-name="ebreve" unicode="&#x115;" horiz-adv-x="550" 
d="M49 213q0 112 69 197q76 93 192 93q87 0 141 -55.5t54 -147.5q0 -38 -8 -70h-390v-14q0 -82 51 -128t133 -46q74 0 148 39l-11 -61q-60 -31 -142 -31q-101 0 -169 59t-68 165zM160 376q-33 -42 -46 -97h335q1 9 1 19q0 66 -36 109t-107 43q-89 0 -147 -74zM344 573
q-52 0 -82 31.5t-30 81.5q0 12 2 30h40q-2 -14 -2 -25q0 -34 18.5 -56.5t57.5 -22.5q80 0 105 104h39q-11 -66 -51 -104.5t-97 -38.5z" />
    <glyph glyph-name="Edotaccent" unicode="&#x116;" horiz-adv-x="551" 
d="M46 0l128 724h400l-10 -56h-339l-47 -264h296l-10 -56h-296l-51 -292h348l-10 -56h-409zM398 836q-16 0 -27.5 11t-11.5 28q0 18 13 30.5t31 12.5q17 0 28 -11t11 -28q0 -18 -13 -30.5t-31 -12.5z" />
    <glyph glyph-name="edotaccent" unicode="&#x117;" horiz-adv-x="550" 
d="M49 213q0 112 69 197q76 93 192 93q87 0 141 -55.5t54 -147.5q0 -38 -8 -70h-390v-14q0 -82 51 -128t133 -46q74 0 148 39l-11 -61q-60 -31 -142 -31q-101 0 -169 59t-68 165zM160 376q-33 -42 -46 -97h335q1 9 1 19q0 66 -36 109t-107 43q-89 0 -147 -74zM348 604
q-16 0 -27.5 11t-11.5 28q0 18 13 30.5t31 12.5q17 0 28 -11t11 -28q0 -18 -13 -30.5t-31 -12.5z" />
    <glyph glyph-name="Eogonek" unicode="&#x118;" horiz-adv-x="551" 
d="M46 0l128 724h400l-10 -56h-339l-47 -264h296l-10 -56h-296l-51 -292h348l-10 -56q-48 -25 -80.5 -62.5t-32.5 -76.5q0 -49 54 -49q13 0 27 2l-8 -42q-21 -3 -29 -3q-40 0 -68 22.5t-28 63.5q0 79 90 143v2h-334z" />
    <glyph glyph-name="eogonek" unicode="&#x119;" horiz-adv-x="550" 
d="M49 213q0 112 69 197q76 93 192 93q87 0 141 -55.5t54 -147.5q0 -38 -8 -70h-390v-14q0 -82 51 -128t133 -46q74 0 148 39l-11 -61q-128 -81 -128 -158q0 -50 54 -50q13 0 27 2l-8 -42q-21 -3 -30 -3q-40 0 -67.5 22.5t-27.5 64.5q0 67 77 133l-1 2q-13 -2 -38 -2
q-101 0 -169 59t-68 165zM160 376q-33 -42 -46 -97h335q1 9 1 19q0 66 -36 109t-107 43q-89 0 -147 -74z" />
    <glyph glyph-name="Ecaron" unicode="&#x11a;" horiz-adv-x="551" 
d="M46 0l128 724h400l-10 -56h-339l-47 -264h296l-10 -56h-296l-51 -292h348l-10 -56h-409zM563 959l-145 -164h-63l-87 164h47l77 -125l118 125h53z" />
    <glyph glyph-name="ecaron" unicode="&#x11b;" horiz-adv-x="550" 
d="M49 213q0 112 69 197q76 93 192 93q87 0 141 -55.5t54 -147.5q0 -38 -8 -70h-390v-14q0 -82 51 -128t133 -46q74 0 148 39l-11 -61q-60 -31 -142 -31q-101 0 -169 59t-68 165zM160 376q-33 -42 -46 -97h335q1 9 1 19q0 66 -36 109t-107 43q-89 0 -147 -74zM513 727
l-145 -164h-63l-87 164h47l77 -125l118 125h53z" />
    <glyph glyph-name="Gcircumflex" unicode="&#x11c;" horiz-adv-x="727" 
d="M397 -11q-148 0 -239 85.5t-91 232.5q0 89 35.5 175.5t102.5 148.5q114 104 276 104q109 0 219 -55l-11 -64q-98 62 -212 62q-135 0 -230 -87q-57 -53 -88 -127t-31 -152q0 -121 72.5 -194t200.5 -73q83 0 153 29l39 217h-176l10 56h236l-55 -314q-95 -44 -211 -44z
M351 795l145 164h63l87 -164h-47l-77 125l-118 -125h-53z" />
    <glyph glyph-name="gcircumflex" unicode="&#x11d;" horiz-adv-x="576" 
d="M49 207q0 58 22 115.5t63 99.5q78 81 197 81q98 0 193 -54l-82 -464q-38 -216 -249 -216q-94 0 -173 45l11 61q79 -52 165 -52q72 0 121.5 39.5t64.5 121.5l13 71l-2 1q-69 -56 -147 -56q-84 0 -140.5 56t-56.5 151zM108 211q0 -74 41 -116.5t107 -42.5q77 0 150 63
l53 301q-60 34 -133 34q-92 0 -152 -65q-66 -72 -66 -174zM202 563l145 164h63l87 -164h-47l-77 125l-118 -125h-53z" />
    <glyph glyph-name="Gbreve" unicode="&#x11e;" horiz-adv-x="727" 
d="M397 -11q-148 0 -239 85.5t-91 232.5q0 89 35.5 175.5t102.5 148.5q114 104 276 104q109 0 219 -55l-11 -64q-98 62 -212 62q-135 0 -230 -87q-57 -53 -88 -127t-31 -152q0 -121 72.5 -194t200.5 -73q83 0 153 29l39 217h-176l10 56h236l-55 -314q-95 -44 -211 -44z
M506 805q-52 0 -82 31.5t-30 81.5q0 12 2 30h40q-2 -14 -2 -25q0 -34 18.5 -56.5t57.5 -22.5q80 0 105 104h39q-11 -66 -51 -104.5t-97 -38.5z" />
    <glyph glyph-name="gbreve" unicode="&#x11f;" horiz-adv-x="576" 
d="M49 207q0 58 22 115.5t63 99.5q78 81 197 81q98 0 193 -54l-82 -464q-38 -216 -249 -216q-94 0 -173 45l11 61q79 -52 165 -52q72 0 121.5 39.5t64.5 121.5l13 71l-2 1q-69 -56 -147 -56q-84 0 -140.5 56t-56.5 151zM108 211q0 -74 41 -116.5t107 -42.5q77 0 150 63
l53 301q-60 34 -133 34q-92 0 -152 -65q-66 -72 -66 -174zM357 573q-52 0 -82 31.5t-30 81.5q0 12 2 30h40q-2 -14 -2 -25q0 -34 18.5 -56.5t57.5 -22.5q80 0 105 104h39q-11 -66 -51 -104.5t-97 -38.5z" />
    <glyph glyph-name="Gdotaccent" unicode="&#x120;" horiz-adv-x="727" 
d="M397 -11q-148 0 -239 85.5t-91 232.5q0 89 35.5 175.5t102.5 148.5q114 104 276 104q109 0 219 -55l-11 -64q-98 62 -212 62q-135 0 -230 -87q-57 -53 -88 -127t-31 -152q0 -121 72.5 -194t200.5 -73q83 0 153 29l39 217h-176l10 56h236l-55 -314q-95 -44 -211 -44z
M510 836q-16 0 -27.5 11t-11.5 28q0 18 13 30.5t31 12.5q17 0 28 -11t11 -28q0 -18 -13 -30.5t-31 -12.5z" />
    <glyph glyph-name="gdotaccent" unicode="&#x121;" horiz-adv-x="576" 
d="M49 207q0 58 22 115.5t63 99.5q78 81 197 81q98 0 193 -54l-82 -464q-38 -216 -249 -216q-94 0 -173 45l11 61q79 -52 165 -52q72 0 121.5 39.5t64.5 121.5l13 71l-2 1q-69 -56 -147 -56q-84 0 -140.5 56t-56.5 151zM108 211q0 -74 41 -116.5t107 -42.5q77 0 150 63
l53 301q-60 34 -133 34q-92 0 -152 -65q-66 -72 -66 -174zM361 604q-17 0 -28 11t-11 28q0 18 13 30.5t31 12.5q16 0 27.5 -11t11.5 -28q0 -18 -13 -30.5t-31 -12.5z" />
    <glyph glyph-name="Gcommaaccent" unicode="&#x122;" horiz-adv-x="727" 
d="M397 -11q-148 0 -239 85.5t-91 232.5q0 89 35.5 175.5t102.5 148.5q114 104 276 104q109 0 219 -55l-11 -64q-98 62 -212 62q-135 0 -230 -87q-57 -53 -88 -127t-31 -152q0 -121 72.5 -194t200.5 -73q83 0 153 29l39 217h-176l10 56h236l-55 -314q-95 -44 -211 -44z
M326 -54h60l-111 -218h-45z" />
    <glyph glyph-name="gcommaaccent" unicode="&#x123;" horiz-adv-x="576" 
d="M49 207q0 58 22 115.5t63 99.5q78 81 197 81q98 0 193 -54l-82 -464q-38 -216 -249 -216q-94 0 -173 45l11 61q79 -52 165 -52q72 0 121.5 39.5t64.5 121.5l13 71l-2 1q-69 -56 -147 -56q-84 0 -140.5 56t-56.5 151zM108 211q0 -74 41 -116.5t107 -42.5q77 0 150 63
l53 301q-60 34 -133 34q-92 0 -152 -65q-66 -72 -66 -174zM299 556l111 218h45l-96 -218h-60z" />
    <glyph glyph-name="Hcircumflex" unicode="&#x124;" horiz-adv-x="729" 
d="M46 0l128 724h61l-56 -320h428l56 320h61l-128 -724h-61l61 348h-428l-61 -348h-61zM314 795l145 164h63l87 -164h-47l-77 125l-118 -125h-53z" />
    <glyph glyph-name="hcircumflex" unicode="&#x125;" horiz-adv-x="587" 
d="M44 0l135 764h59l-60 -341l2 -1q97 81 192 81q66 0 105.5 -38.5t39.5 -106.5q0 -25 -9 -79l-49 -279h-59l49 277q9 49 9 72q0 45 -25 72t-76 27q-83 0 -192 -95l-62 -353h-59zM65 826l145 164h63l87 -164h-47l-77 125l-118 -125h-53z" />
    <glyph glyph-name="Hbar" unicode="&#x126;" horiz-adv-x="741" 
d="M185 404h427l24 134h-427zM63 538l9 51h84l24 135h61l-24 -135h428l24 135h61l-24 -135h84l-9 -51h-84l-95 -538h-61l61 348h-428l-61 -348h-61l95 538h-84z" />
    <glyph glyph-name="hbar" unicode="&#x127;" horiz-adv-x="587" 
d="M103 0h-59l106 598h-89l9 49h88l21 117h59l-21 -117h169l-9 -49h-168l-31 -175l2 -1q97 81 192 81q66 0 105.5 -38.5t39.5 -106.5q0 -25 -9 -79l-49 -279h-59l49 277q9 49 9 72q0 45 -25 72t-76 27q-83 0 -192 -95z" />
    <glyph glyph-name="Itilde" unicode="&#x128;" horiz-adv-x="240" 
d="M46 0l128 724h61l-128 -724h-61zM221 857q-41 24 -64 24q-45 0 -78 -51l-2 1l10 59q27 40 79 40q28 0 77 -28q41 -24 64 -24q45 0 78 51l2 -1l-10 -59q-27 -40 -79 -40q-28 0 -77 28z" />
    <glyph glyph-name="itilde" unicode="&#x129;" horiz-adv-x="234" 
d="M44 0l87 492h59l-87 -492h-59zM177 625q-41 24 -64 24q-45 0 -78 -51l-2 1l10 59q27 40 79 40q28 0 77 -28q41 -24 64 -24q45 0 78 51l2 -1l-10 -59q-27 -40 -79 -40q-28 0 -77 28z" />
    <glyph glyph-name="Imacron" unicode="&#x12a;" horiz-adv-x="240" 
d="M46 0l128 724h61l-128 -724h-61zM96 854l8 46h263l-8 -46h-263z" />
    <glyph glyph-name="imacron" unicode="&#x12b;" horiz-adv-x="234" 
d="M44 0l87 492h59l-87 -492h-59zM52 622l8 46h263l-8 -46h-263z" />
    <glyph glyph-name="Ibreve" unicode="&#x12c;" horiz-adv-x="240" 
d="M46 0l128 724h61l-128 -724h-61zM225 805q-52 0 -82 31.5t-30 81.5q0 12 2 30h40q-2 -14 -2 -25q0 -34 18.5 -56.5t57.5 -22.5q80 0 105 104h39q-11 -66 -51 -104.5t-97 -38.5z" />
    <glyph glyph-name="ibreve" unicode="&#x12d;" horiz-adv-x="234" 
d="M44 0l87 492h59l-87 -492h-59zM181 573q-52 0 -82 31.5t-30 81.5q0 12 2 30h40q-2 -14 -2 -25q0 -34 18.5 -56.5t57.5 -22.5q80 0 105 104h39q-11 -66 -51 -104.5t-97 -38.5z" />
    <glyph glyph-name="Iogonek" unicode="&#x12e;" horiz-adv-x="240" 
d="M-33 -142q0 76 79 143l128 723h61l-128 -724q-87 -67 -87 -135q0 -52 55 -52q14 0 32 4l-8 -44q-20 -4 -32 -4q-43 0 -71.5 23.5t-28.5 65.5z" />
    <glyph glyph-name="iogonek" unicode="&#x12f;" horiz-adv-x="234" 
d="M-43 -143q0 74 88 147l86 488h59l-87 -492q-94 -69 -94 -137q0 -23 14 -37t41 -14q18 0 30 3l-8 -43q-13 -3 -31 -3q-41 0 -69.5 23t-28.5 65zM188 618q-19 0 -31 12.5t-12 30.5q0 20 14 34t34 14q19 0 31 -12.5t12 -30.5q0 -20 -14 -34t-34 -14z" />
    <glyph glyph-name="Idotaccent" unicode="&#x130;" horiz-adv-x="240" 
d="M46 0l128 724h61l-128 -724h-61zM229 836q-17 0 -28 11t-11 28q0 18 13 30.5t31 12.5q16 0 27.5 -11t11.5 -28q0 -18 -13 -30.5t-31 -12.5z" />
    <glyph glyph-name="dotlessi" unicode="&#x131;" horiz-adv-x="234" 
d="M44 0l87 492h59l-87 -492h-59z" />
    <glyph glyph-name="IJ" unicode="&#x132;" horiz-adv-x="619" 
d="M46 0l128 724h61l-128 -724h-61zM614 724l-97 -549q-16 -89 -46 -127q-46 -59 -132 -59q-58 0 -112 25l10 59q58 -29 104 -29q55 0 79.5 35t36.5 103l96 542h61z" />
    <glyph glyph-name="ij" unicode="&#x133;" horiz-adv-x="468" 
d="M44 0l87 492h59l-87 -492h-59zM188 618q-19 0 -31 12.5t-12 30.5q0 20 14 34t34 14q19 0 31 -12.5t12 -30.5q0 -20 -14 -34t-34 -14zM266 -79l101 571h59l-102 -578q-13 -70 -40 -100q-39 -45 -106 -45q-37 0 -67 11l9 54q40 -11 60 -11q39 0 58 24.5t28 73.5zM424 618
q-19 0 -31 12.5t-12 30.5q0 20 14 34t34 14q19 0 31 -12.5t12 -30.5q0 -20 -14 -34t-34 -14z" />
    <glyph glyph-name="Jcircumflex" unicode="&#x134;" horiz-adv-x="354" 
d="M374 724l-97 -549q-16 -89 -46 -127q-46 -59 -132 -59q-58 0 -112 25l10 59q58 -29 104 -29q55 0 79.5 35t36.5 103l96 542h61zM209 795l145 164h63l87 -164h-47l-77 125l-118 -125h-53z" />
    <glyph glyph-name="jcircumflex" unicode="&#x135;" horiz-adv-x="234" 
d="M32 -79l101 571h59l-102 -578q-13 -70 -40 -100q-39 -45 -106 -45q-37 0 -67 11l9 54q40 -11 60 -11q39 0 58 24.5t28 73.5zM28 563l145 164h63l87 -164h-47l-77 125l-118 -125h-53z" />
    <glyph glyph-name="Kcommaaccent" unicode="&#x136;" horiz-adv-x="608" 
d="M46 0l128 724h61l-58 -326h2l399 326h80l-412 -336l305 -388h-75l-299 384h-2l-68 -384h-61zM229 -54h60l-111 -218h-45z" />
    <glyph glyph-name="kcommaaccent" unicode="&#x137;" horiz-adv-x="505" 
d="M44 0l135 764h59l-85 -481h2l290 209h83l-307 -220l227 -272h-74l-222 268h-2l-47 -268h-59zM177 -54h60l-111 -218h-45z" />
    <glyph glyph-name="kgreenlandic" unicode="&#x138;" horiz-adv-x="505" 
d="M44 0l87 492h59l-37 -209h2l290 209h83l-307 -220l227 -272h-74l-222 268h-2l-47 -268h-59z" />
    <glyph glyph-name="Lacute" unicode="&#x139;" horiz-adv-x="537" 
d="M46 0l128 724h61l-118 -668h359l-10 -56h-420zM366 959l-134 -164h-47l115 164h66z" />
    <glyph glyph-name="lacute" unicode="&#x13a;" horiz-adv-x="234" 
d="M238 764l-135 -764h-59l135 764h59zM349 990l-134 -164h-47l115 164h66z" />
    <glyph glyph-name="Lcommaaccent" unicode="&#x13b;" horiz-adv-x="537" 
d="M46 0l128 724h61l-118 -668h359l-10 -56h-420zM213 -54h60l-111 -218h-45z" />
    <glyph glyph-name="lcommaaccent" unicode="&#x13c;" horiz-adv-x="234" 
d="M238 764l-135 -764h-59l135 764h59zM42 -54h60l-111 -218h-45z" />
    <glyph glyph-name="Lcaron" unicode="&#x13d;" horiz-adv-x="537" 
d="M46 0l128 724h61l-118 -668h359l-10 -56h-420zM479 780l-121 -261h-41l102 261h60z" />
    <glyph glyph-name="lcaron" unicode="&#x13e;" horiz-adv-x="322" 
d="M238 764l-135 -764h-59l135 764h59zM363 764h60l-111 -218h-45z" />
    <glyph glyph-name="Ldot" unicode="&#x13f;" horiz-adv-x="537" 
d="M46 0l128 724h61l-118 -668h359l-10 -56h-420zM409 328q-21 0 -35 14t-14 34q0 22 15.5 37t37.5 15q21 0 35 -14t14 -34q0 -22 -15.5 -37t-37.5 -15z" />
    <glyph glyph-name="ldot" unicode="&#x140;" horiz-adv-x="314" 
d="M238 764l-135 -764h-59l135 764h59zM284 287q-16 0 -27.5 11.5t-11.5 27.5q0 18 13 30.5t31 12.5q17 0 28 -11.5t11 -27.5q0 -18 -13 -30.5t-31 -12.5z" />
    <glyph glyph-name="Lslash" unicode="&#x141;" horiz-adv-x="544" 
d="M0 236l10 58l105 57l66 373h61l-60 -337l141 77l-10 -58l-141 -77l-48 -273h359l-10 -56h-420l52 293z" />
    <glyph glyph-name="lslash" unicode="&#x142;" horiz-adv-x="240" 
d="M241 764l-63 -356l94 53l-10 -58l-94 -53l-62 -350h-59l55 313l-96 -54l10 58l97 54l69 393h59z" />
    <glyph glyph-name="Nacute" unicode="&#x143;" horiz-adv-x="754" 
d="M105 0h-59l128 724h56l234 -423q53 -96 113 -207h2q21 122 42 240l69 390h59l-128 -724h-56l-234 423q-53 96 -113 207h-2q-21 -122 -42 -240zM600 959l-134 -164h-47l115 164h66z" />
    <glyph glyph-name="nacute" unicode="&#x144;" horiz-adv-x="588" 
d="M44 0l87 492h59l-12 -69l2 -1q97 81 192 81q66 0 105.5 -38.5t39.5 -106.5q0 -25 -9 -79l-49 -279h-59l49 277q9 49 9 72q0 45 -25 72t-76 27q-83 0 -192 -95l-62 -353h-59zM476 727l-134 -164h-47l115 164h66z" />
    <glyph glyph-name="Ncommaaccent" unicode="&#x145;" horiz-adv-x="754" 
d="M105 0h-59l128 724h56l234 -423q53 -96 113 -207h2q21 122 42 240l69 390h59l-128 -724h-56l-234 423q-53 96 -113 207h-2q-21 -122 -42 -240zM302 -54h60l-111 -218h-45z" />
    <glyph glyph-name="ncommaaccent" unicode="&#x146;" horiz-adv-x="588" 
d="M44 0l87 492h59l-12 -69l2 -1q97 81 192 81q66 0 105.5 -38.5t39.5 -106.5q0 -25 -9 -79l-49 -279h-59l49 277q9 49 9 72q0 45 -25 72t-76 27q-83 0 -192 -95l-62 -353h-59zM219 -54h60l-111 -218h-45z" />
    <glyph glyph-name="Ncaron" unicode="&#x147;" horiz-adv-x="754" 
d="M105 0h-59l128 724h56l234 -423q53 -96 113 -207h2q21 122 42 240l69 390h59l-128 -724h-56l-234 423q-53 96 -113 207h-2q-21 -122 -42 -240zM651 959l-145 -164h-63l-87 164h47l77 -125l118 125h53z" />
    <glyph glyph-name="ncaron" unicode="&#x148;" horiz-adv-x="588" 
d="M44 0l87 492h59l-12 -69l2 -1q97 81 192 81q66 0 105.5 -38.5t39.5 -106.5q0 -25 -9 -79l-49 -279h-59l49 277q9 49 9 72q0 45 -25 72t-76 27q-83 0 -192 -95l-62 -353h-59zM527 727l-145 -164h-63l-87 164h47l77 -125l118 125h53z" />
    <glyph glyph-name="napostrophe" unicode="&#x149;" horiz-adv-x="588" 
d="M44 0l87 492h59l-12 -69l2 -1q97 81 192 81q66 0 105.5 -38.5t39.5 -106.5q0 -25 -9 -79l-49 -279h-59l49 277q9 49 9 72q0 45 -25 72t-76 27q-83 0 -192 -95l-62 -353h-59zM227 772h60l-111 -218h-45z" />
    <glyph glyph-name="Eng" unicode="&#x14a;" horiz-adv-x="754" 
d="M555 -38l7 42l-231 419q-53 96 -113 207h-2l-42 -240l-69 -390h-59l128 724h56l234 -423q53 -96 113 -207h2l42 240l69 390h59l-136 -769q-16 -89 -46 -127q-46 -59 -132 -59q-57 0 -111 25l10 59q58 -29 104 -29q55 0 80 35t37 103z" />
    <glyph glyph-name="eng" unicode="&#x14b;" horiz-adv-x="588" 
d="M508 279l-64 -365q-13 -70 -40 -100q-39 -45 -106 -45q-37 0 -67 11l9 54q40 -11 60 -11q39 0 58 24.5t28 73.5l63 356q9 49 9 72q0 45 -25 72t-76 27q-83 0 -192 -95l-62 -353h-59l87 492h59l-12 -69l2 -1q97 81 192 81q66 0 105.5 -38.5t39.5 -106.5q0 -25 -9 -79z" />
    <glyph glyph-name="Omacron" unicode="&#x14c;" horiz-adv-x="802" 
d="M449 735q140 0 232.5 -93t92.5 -242q0 -156 -95 -274q-111 -137 -285 -137q-140 0 -232.5 93t-92.5 242q0 156 95 274q111 137 285 137zM397 46q144 0 234 114q82 101 82 236q0 122 -73.5 202t-193.5 80q-144 0 -234 -114q-82 -101 -82 -236q0 -122 73.5 -202t193.5 -80z
M377 854l8 46h263l-8 -46h-263z" />
    <glyph glyph-name="omacron" unicode="&#x14d;" horiz-adv-x="590" 
d="M279 43q83 0 138 58q65 68 65 169q0 78 -46 128.5t-125 50.5q-83 0 -138 -58q-65 -68 -65 -169q0 -78 46 -128.5t125 -50.5zM277 -11q-101 0 -164.5 63.5t-63.5 165.5q0 123 81 208q74 77 183 77q101 0 164.5 -63.5t63.5 -165.5q0 -123 -81 -208q-74 -77 -183 -77z
M230 622l8 46h263l-8 -46h-263z" />
    <glyph glyph-name="Obreve" unicode="&#x14e;" horiz-adv-x="802" 
d="M449 735q140 0 232.5 -93t92.5 -242q0 -156 -95 -274q-111 -137 -285 -137q-140 0 -232.5 93t-92.5 242q0 156 95 274q111 137 285 137zM397 46q144 0 234 114q82 101 82 236q0 122 -73.5 202t-193.5 80q-144 0 -234 -114q-82 -101 -82 -236q0 -122 73.5 -202t193.5 -80z
M506 805q-52 0 -82 31.5t-30 81.5q0 12 2 30h40q-2 -14 -2 -25q0 -34 18.5 -56.5t57.5 -22.5q80 0 105 104h39q-11 -66 -51 -104.5t-97 -38.5z" />
    <glyph glyph-name="obreve" unicode="&#x14f;" horiz-adv-x="590" 
d="M279 43q83 0 138 58q65 68 65 169q0 78 -46 128.5t-125 50.5q-83 0 -138 -58q-65 -68 -65 -169q0 -78 46 -128.5t125 -50.5zM277 -11q-101 0 -164.5 63.5t-63.5 165.5q0 123 81 208q74 77 183 77q101 0 164.5 -63.5t63.5 -165.5q0 -123 -81 -208q-74 -77 -183 -77z
M359 573q-52 0 -82 31.5t-30 81.5q0 12 2 30h40q-2 -14 -2 -25q0 -34 18.5 -56.5t57.5 -22.5q80 0 105 104h39q-11 -66 -51 -104.5t-97 -38.5z" />
    <glyph glyph-name="Ohungarumlaut" unicode="&#x150;" horiz-adv-x="802" 
d="M449 735q140 0 232.5 -93t92.5 -242q0 -156 -95 -274q-111 -137 -285 -137q-140 0 -232.5 93t-92.5 242q0 156 95 274q111 137 285 137zM397 46q144 0 234 114q82 101 82 236q0 122 -73.5 202t-193.5 80q-144 0 -234 -114q-82 -101 -82 -236q0 -122 73.5 -202t193.5 -80z
M387 795l120 164h54l-132 -164h-42zM515 795l120 164h54l-132 -164h-42z" />
    <glyph glyph-name="ohungarumlaut" unicode="&#x151;" horiz-adv-x="590" 
d="M279 43q83 0 138 58q65 68 65 169q0 78 -46 128.5t-125 50.5q-83 0 -138 -58q-65 -68 -65 -169q0 -78 46 -128.5t125 -50.5zM277 -11q-101 0 -164.5 63.5t-63.5 165.5q0 123 81 208q74 77 183 77q101 0 164.5 -63.5t63.5 -165.5q0 -123 -81 -208q-74 -77 -183 -77z
M240 563l120 164h54l-132 -164h-42zM368 563l120 164h54l-132 -164h-42z" />
    <glyph glyph-name="OE" unicode="&#x152;" horiz-adv-x="901" 
d="M69 325q0 159 106 272q117 127 318 127h431l-10 -56h-319l-47 -264h276l-10 -56h-276l-51 -292h328l-10 -56h-382q-154 0 -254 87.5t-100 237.5zM130 330q0 -125 81.5 -199.5t214.5 -74.5l108 612h-45q-176 0 -274 -112q-85 -100 -85 -226z" />
    <glyph glyph-name="oe" unicode="&#x153;" horiz-adv-x="956" 
d="M108 221q0 -77 44 -127.5t120 -50.5q85 0 139 65q57 68 57 163q0 76 -43.5 127t-120.5 51q-85 0 -139 -65q-57 -70 -57 -163zM697 -11q-74 0 -132.5 34.5t-81.5 95.5h-2q-34 -61 -89 -95.5t-125 -34.5q-96 0 -157 63.5t-61 163.5q0 119 74 203q73 84 183 84
q74 0 127.5 -39t72.5 -97h2q28 57 84.5 96.5t128.5 39.5q85 0 137.5 -55.5t52.5 -145.5q0 -34 -8 -72h-381v-14q0 -82 50 -128t129 -46q75 0 144 40l-11 -62q-59 -31 -137 -31zM576 376q-32 -41 -46 -97h325q1 5 1 18q0 66 -34.5 109.5t-102.5 43.5q-86 0 -143 -74z" />
    <glyph glyph-name="Racute" unicode="&#x154;" horiz-adv-x="620" 
d="M46 0l128 724h186q129 0 190 -54q56 -48 56 -131q0 -89 -63 -149q-55 -52 -153 -63l157 -327h-68l-153 324h-162l-57 -324h-61zM174 376h167q109 0 160 50q44 44 44 107q0 60 -42 96q-48 39 -149 39h-129zM513 959l-134 -164h-47l115 164h66z" />
    <glyph glyph-name="racute" unicode="&#x155;" horiz-adv-x="360" 
d="M176 415l1 -1q76 83 168 83q17 0 29 -3l-10 -58q-12 2 -28 2q-92 0 -173 -95l-60 -343h-59l87 492h59zM369 727l-134 -164h-47l115 164h66z" />
    <glyph glyph-name="Rcommaaccent" unicode="&#x156;" horiz-adv-x="620" 
d="M46 0l128 724h186q129 0 190 -54q56 -48 56 -131q0 -89 -63 -149q-55 -52 -153 -63l157 -327h-68l-153 324h-162l-57 -324h-61zM174 376h167q109 0 160 50q44 44 44 107q0 60 -42 96q-48 39 -149 39h-129zM215 -54h60l-111 -218h-45z" />
    <glyph glyph-name="rcommaaccent" unicode="&#x157;" horiz-adv-x="360" 
d="M176 415l1 -1q76 83 168 83q17 0 29 -3l-10 -58q-12 2 -28 2q-92 0 -173 -95l-60 -343h-59l87 492h59zM78 -54h60l-111 -218h-45z" />
    <glyph glyph-name="Rcaron" unicode="&#x158;" horiz-adv-x="620" 
d="M46 0l128 724h186q129 0 190 -54q56 -48 56 -131q0 -89 -63 -149q-55 -52 -153 -63l157 -327h-68l-153 324h-162l-57 -324h-61zM174 376h167q109 0 160 50q44 44 44 107q0 60 -42 96q-48 39 -149 39h-129zM564 959l-145 -164h-63l-87 164h47l77 -125l118 125h53z" />
    <glyph glyph-name="rcaron" unicode="&#x159;" horiz-adv-x="360" 
d="M176 415l1 -1q76 83 168 83q17 0 29 -3l-10 -58q-12 2 -28 2q-92 0 -173 -95l-60 -343h-59l87 492h59zM420 727l-145 -164h-63l-87 164h47l77 -125l118 125h53z" />
    <glyph glyph-name="Sacute" unicode="&#x15a;" horiz-adv-x="542" 
d="M30 66l12 70q43 -41 100.5 -65.5t114.5 -24.5q75 0 122 39q50 42 50 111q0 29 -9.5 50.5t-34 39.5t-44 28t-61.5 29q-44 20 -66 32t-50.5 34t-41 51t-12.5 68q0 87 62 146q64 61 166 61q112 0 203 -66l-12 -66q-92 75 -196 75q-73 0 -117 -40q-45 -40 -45 -103
q0 -28 9.5 -49t33.5 -38.5t43.5 -27.5t61.5 -29q43 -19 67 -32.5t51.5 -35.5t40 -52t12.5 -69q0 -97 -74 -159q-64 -54 -162 -54q-127 0 -224 77zM496 959l-134 -164h-47l115 164h66z" />
    <glyph glyph-name="sacute" unicode="&#x15b;" horiz-adv-x="471" 
d="M19 48l11 63q37 -32 89.5 -50.5t104.5 -18.5q58 0 92 25q35 26 35 69q0 17 -8 31t-16 21.5t-30 16t-31.5 11t-38.5 9.5t-47.5 12.5t-41.5 16.5t-36 23t-22.5 31.5t-9.5 44.5q0 71 56 113q49 37 130 37q102 0 181 -50l-10 -57q-78 54 -179 54q-55 0 -85 -23
q-34 -26 -34 -67q0 -35 27 -50.5t84 -30.5q9 -2 14 -3q35 -9 58 -17.5t48 -23.5t37.5 -38t12.5 -53q0 -76 -61 -120q-48 -35 -128 -35q-119 0 -202 59zM413 727l-134 -164h-47l115 164h66z" />
    <glyph glyph-name="Scircumflex" unicode="&#x15c;" horiz-adv-x="542" 
d="M30 66l12 70q43 -41 100.5 -65.5t114.5 -24.5q75 0 122 39q50 42 50 111q0 29 -9.5 50.5t-34 39.5t-44 28t-61.5 29q-44 20 -66 32t-50.5 34t-41 51t-12.5 68q0 87 62 146q64 61 166 61q112 0 203 -66l-12 -66q-92 75 -196 75q-73 0 -117 -40q-45 -40 -45 -103
q0 -28 9.5 -49t33.5 -38.5t43.5 -27.5t61.5 -29q43 -19 67 -32.5t51.5 -35.5t40 -52t12.5 -69q0 -97 -74 -159q-64 -54 -162 -54q-127 0 -224 77zM223 795l145 164h63l87 -164h-47l-77 125l-118 -125h-53z" />
    <glyph glyph-name="scircumflex" unicode="&#x15d;" horiz-adv-x="471" 
d="M19 48l11 63q37 -32 89.5 -50.5t104.5 -18.5q58 0 92 25q35 26 35 69q0 17 -8 31t-16 21.5t-30 16t-31.5 11t-38.5 9.5t-47.5 12.5t-41.5 16.5t-36 23t-22.5 31.5t-9.5 44.5q0 71 56 113q49 37 130 37q102 0 181 -50l-10 -57q-78 54 -179 54q-55 0 -85 -23
q-34 -26 -34 -67q0 -35 27 -50.5t84 -30.5q9 -2 14 -3q35 -9 58 -17.5t48 -23.5t37.5 -38t12.5 -53q0 -76 -61 -120q-48 -35 -128 -35q-119 0 -202 59zM140 563l145 164h63l87 -164h-47l-77 125l-118 -125h-53z" />
    <glyph glyph-name="Scedilla" unicode="&#x15e;" horiz-adv-x="542" 
d="M30 66l12 70q43 -41 100.5 -65.5t114.5 -24.5q75 0 122 39q50 42 50 111q0 29 -9.5 50.5t-34 39.5t-44 28t-61.5 29q-44 20 -66 32t-50.5 34t-41 51t-12.5 68q0 87 62 146q64 61 166 61q112 0 203 -66l-12 -66q-92 75 -196 75q-73 0 -117 -40q-45 -40 -45 -103
q0 -28 9.5 -49t33.5 -38.5t43.5 -27.5t61.5 -29q43 -19 67 -32.5t51.5 -35.5t40 -52t12.5 -69q0 -97 -74 -159q-64 -54 -162 -54l-19 -41q74 -21 74 -81q0 -38 -28 -63t-71 -25q-41 0 -82 25l17 35q37 -24 65 -24q22 0 40 13t18 35q0 45 -82 60l32 68q-108 11 -188 75z" />
    <glyph glyph-name="scedilla" unicode="&#x15f;" horiz-adv-x="471" 
d="M146 -77l33 69q-95 10 -160 56l11 63q37 -32 89.5 -50.5t104.5 -18.5q58 0 92 25q35 26 35 69q0 17 -8 31t-16 21.5t-30 16t-31.5 11t-38.5 9.5t-47.5 12.5t-41.5 16.5t-36 23t-22.5 31.5t-9.5 44.5q0 71 56 113q49 37 130 37q102 0 181 -50l-10 -57q-78 54 -179 54
q-55 0 -85 -23q-34 -26 -34 -67q0 -35 27 -50.5t84 -30.5q9 -2 14 -3q35 -9 58 -17.5t48 -23.5t37.5 -38t12.5 -53q0 -76 -61 -120q-48 -35 -128 -35h-7l-19 -41q74 -21 74 -81q0 -38 -28 -63t-71 -25q-41 0 -82 25l17 35q37 -24 65 -24q22 0 40 13t18 35q0 45 -82 60z" />
    <glyph glyph-name="Scaron" unicode="&#x160;" horiz-adv-x="542" 
d="M30 66l12 70q43 -41 100.5 -65.5t114.5 -24.5q75 0 122 39q50 42 50 111q0 29 -9.5 50.5t-34 39.5t-44 28t-61.5 29q-44 20 -66 32t-50.5 34t-41 51t-12.5 68q0 87 62 146q64 61 166 61q112 0 203 -66l-12 -66q-92 75 -196 75q-73 0 -117 -40q-45 -40 -45 -103
q0 -28 9.5 -49t33.5 -38.5t43.5 -27.5t61.5 -29q43 -19 67 -32.5t51.5 -35.5t40 -52t12.5 -69q0 -97 -74 -159q-64 -54 -162 -54q-127 0 -224 77zM547 959l-145 -164h-63l-87 164h47l77 -125l118 125h53z" />
    <glyph glyph-name="scaron" unicode="&#x161;" horiz-adv-x="471" 
d="M19 48l11 63q37 -32 89.5 -50.5t104.5 -18.5q58 0 92 25q35 26 35 69q0 17 -8 31t-16 21.5t-30 16t-31.5 11t-38.5 9.5t-47.5 12.5t-41.5 16.5t-36 23t-22.5 31.5t-9.5 44.5q0 71 56 113q49 37 130 37q102 0 181 -50l-10 -57q-78 54 -179 54q-55 0 -85 -23
q-34 -26 -34 -67q0 -35 27 -50.5t84 -30.5q9 -2 14 -3q35 -9 58 -17.5t48 -23.5t37.5 -38t12.5 -53q0 -76 -61 -120q-48 -35 -128 -35q-119 0 -202 59zM464 727l-145 -164h-63l-87 164h47l77 -125l118 125h53z" />
    <glyph glyph-name="Tcommaaccent" unicode="&#x162;" horiz-adv-x="638" 
d="M245 0l118 668h-245l10 56h551l-10 -56h-245l-118 -668h-9l-25 -52q74 -21 74 -81q0 -38 -28 -63t-71 -25q-41 0 -82 25l17 35q37 -24 65 -24q22 0 40 13t18 35q0 45 -82 60l37 77h-15z" />
    <glyph glyph-name="tcommaaccent" unicode="&#x163;" horiz-adv-x="366" 
d="M127 -77l39 80q-65 30 -65 112q0 28 8 73l44 252h-97l9 52h97l25 141l59 3l-25 -144h159l-9 -52h-159l-44 -250q-8 -46 -8 -66q0 -39 21.5 -60t60.5 -21q32 0 60 11l-10 -56q-29 -9 -58 -9q-21 0 -37 4l-21 -45q74 -21 74 -81q0 -38 -28 -63t-71 -25q-41 0 -82 25l17 35
q37 -24 65 -24q22 0 40 13t18 35q0 45 -82 60z" />
    <glyph glyph-name="Tcaron" unicode="&#x164;" horiz-adv-x="638" 
d="M245 0l118 668h-245l10 56h551l-10 -56h-245l-118 -668h-61zM593 959l-145 -164h-63l-87 164h47l77 -125l118 125h53z" />
    <glyph glyph-name="tcaron" unicode="&#x165;" horiz-adv-x="366" 
d="M101 115q0 28 8 73l44 252h-97l9 52h97l25 141l59 3l-25 -144h159l-9 -52h-159l-44 -250q-8 -46 -8 -66q0 -39 21.5 -60t60.5 -21q32 0 60 11l-10 -56q-29 -9 -58 -9q-57 0 -95 32t-38 94zM425 772h60l-111 -218h-45z" />
    <glyph glyph-name="Tbar" unicode="&#x166;" horiz-adv-x="638" 
d="M169 339l9 51h136l49 278h-245l10 56h551l-10 -56h-245l-49 -278h136l-9 -51h-136l-60 -339h-61l60 339h-136z" />
    <glyph glyph-name="tbar" unicode="&#x167;" horiz-adv-x="374" 
d="M181 247l-10 -57q-8 -46 -8 -66q0 -39 21.5 -60t60.5 -21q32 0 60 11l-10 -56q-29 -9 -58 -9q-57 0 -95 32t-38 94q0 28 8 73l10 59h-97l9 52h97l25 141h-97l9 52h97l25 141l59 3l-25 -144h159l-9 -52h-159l-25 -141h159l-9 -52h-159z" />
    <glyph glyph-name="Utilde" unicode="&#x168;" horiz-adv-x="710" 
d="M84 219q0 50 14 128l66 377h61l-66 -377q-13 -72 -13 -120q0 -86 45.5 -133.5t139.5 -47.5q124 0 187 87q43 58 69 202l69 389h59l-70 -395q-29 -162 -82 -232q-81 -108 -236 -108q-117 0 -180 62t-63 168zM457 857q-41 24 -64 24q-45 0 -78 -51l-2 1l10 59q27 40 79 40
q28 0 77 -28q41 -24 64 -24q45 0 78 51l2 -1l-10 -59q-27 -40 -79 -40q-28 0 -77 28z" />
    <glyph glyph-name="utilde" unicode="&#x169;" horiz-adv-x="585" 
d="M68 132q0 33 9 84l49 276h58l-48 -274q-8 -46 -8 -76q0 -45 24.5 -72t74.5 -27q88 0 193 97l62 352h59l-87 -492h-59l12 70l-2 1q-98 -82 -189 -82q-66 0 -107 38.5t-41 104.5zM352 625q-41 24 -64 24q-45 0 -78 -51l-2 1l10 59q27 40 79 40q28 0 77 -28q41 -24 64 -24
q45 0 78 51l2 -1l-10 -59q-27 -40 -79 -40q-28 0 -77 28z" />
    <glyph glyph-name="Umacron" unicode="&#x16a;" horiz-adv-x="710" 
d="M84 219q0 50 14 128l66 377h61l-66 -377q-13 -72 -13 -120q0 -86 45.5 -133.5t139.5 -47.5q124 0 187 87q43 58 69 202l69 389h59l-70 -395q-29 -162 -82 -232q-81 -108 -236 -108q-117 0 -180 62t-63 168zM332 854l8 46h263l-8 -46h-263z" />
    <glyph glyph-name="umacron" unicode="&#x16b;" horiz-adv-x="585" 
d="M68 132q0 33 9 84l49 276h58l-48 -274q-8 -46 -8 -76q0 -45 24.5 -72t74.5 -27q88 0 193 97l62 352h59l-87 -492h-59l12 70l-2 1q-98 -82 -189 -82q-66 0 -107 38.5t-41 104.5zM227 622l8 46h263l-8 -46h-263z" />
    <glyph glyph-name="Ubreve" unicode="&#x16c;" horiz-adv-x="710" 
d="M84 219q0 50 14 128l66 377h61l-66 -377q-13 -72 -13 -120q0 -86 45.5 -133.5t139.5 -47.5q124 0 187 87q43 58 69 202l69 389h59l-70 -395q-29 -162 -82 -232q-81 -108 -236 -108q-117 0 -180 62t-63 168zM461 805q-52 0 -82 31.5t-30 81.5q0 12 2 30h40q-2 -14 -2 -25
q0 -34 18.5 -56.5t57.5 -22.5q80 0 105 104h39q-11 -66 -51 -104.5t-97 -38.5z" />
    <glyph glyph-name="ubreve" unicode="&#x16d;" horiz-adv-x="585" 
d="M68 132q0 33 9 84l49 276h58l-48 -274q-8 -46 -8 -76q0 -45 24.5 -72t74.5 -27q88 0 193 97l62 352h59l-87 -492h-59l12 70l-2 1q-98 -82 -189 -82q-66 0 -107 38.5t-41 104.5zM356 573q-52 0 -82 31.5t-30 81.5q0 12 2 30h40q-2 -14 -2 -25q0 -34 18.5 -56.5t57.5 -22.5
q80 0 105 104h39q-11 -66 -51 -104.5t-97 -38.5z" />
    <glyph glyph-name="Uring" unicode="&#x16e;" horiz-adv-x="710" 
d="M84 219q0 50 14 128l66 377h61l-66 -377q-13 -72 -13 -120q0 -86 45.5 -133.5t139.5 -47.5q124 0 187 87q43 58 69 202l69 389h59l-70 -395q-29 -162 -82 -232q-81 -108 -236 -108q-117 0 -180 62t-63 168zM465 822q32 0 55 23.5t23 58.5q0 28 -17.5 48t-49.5 20
t-55 -23.5t-23 -58.5q0 -28 17.5 -48t49.5 -20zM464 786q-45 0 -74.5 28.5t-29.5 73.5q0 48 34 84t83 36q45 0 74.5 -28.5t29.5 -73.5q0 -48 -34 -84t-83 -36z" />
    <glyph glyph-name="uring" unicode="&#x16f;" horiz-adv-x="585" 
d="M68 132q0 33 9 84l49 276h58l-48 -274q-8 -46 -8 -76q0 -45 24.5 -72t74.5 -27q88 0 193 97l62 352h59l-87 -492h-59l12 70l-2 1q-98 -82 -189 -82q-66 0 -107 38.5t-41 104.5zM360 590q32 0 55 23.5t23 58.5q0 28 -17.5 48t-49.5 20t-55 -23.5t-23 -58.5q0 -28 17.5 -48
t49.5 -20zM359 554q-45 0 -74.5 28.5t-29.5 73.5q0 48 34 84t83 36q45 0 74.5 -28.5t29.5 -73.5q0 -48 -34 -84t-83 -36z" />
    <glyph glyph-name="Uhungarumlaut" unicode="&#x170;" horiz-adv-x="710" 
d="M84 219q0 50 14 128l66 377h61l-66 -377q-13 -72 -13 -120q0 -86 45.5 -133.5t139.5 -47.5q124 0 187 87q43 58 69 202l69 389h59l-70 -395q-29 -162 -82 -232q-81 -108 -236 -108q-117 0 -180 62t-63 168zM342 795l120 164h54l-132 -164h-42zM470 795l120 164h54
l-132 -164h-42z" />
    <glyph glyph-name="uhungarumlaut" unicode="&#x171;" horiz-adv-x="585" 
d="M68 132q0 33 9 84l49 276h58l-48 -274q-8 -46 -8 -76q0 -45 24.5 -72t74.5 -27q88 0 193 97l62 352h59l-87 -492h-59l12 70l-2 1q-98 -82 -189 -82q-66 0 -107 38.5t-41 104.5zM237 563l120 164h54l-132 -164h-42zM365 563l120 164h54l-132 -164h-42z" />
    <glyph glyph-name="Uogonek" unicode="&#x172;" horiz-adv-x="710" 
d="M84 219q0 50 14 128l66 377h61l-66 -377q-13 -72 -13 -120q0 -86 45.5 -133.5t139.5 -47.5q124 0 187 87q43 58 69 202l69 389h59l-70 -395q-29 -162 -82 -232q-69 -93 -196 -106q-87 -65 -87 -130q0 -49 54 -49q13 0 27 2l-8 -42q-21 -3 -29 -3q-40 0 -68 22.5t-28 63.5
q0 70 74 133l-1 2q-104 7 -160.5 68t-56.5 161z" />
    <glyph glyph-name="uogonek" unicode="&#x173;" horiz-adv-x="585" 
d="M395 4l12 66l-2 1q-98 -82 -189 -82q-66 0 -107 38.5t-41 104.5q0 33 9 84l49 276h58l-48 -274q-8 -46 -8 -76q0 -45 24.5 -72t74.5 -27q88 0 193 97l62 352h59l-87 -492q-114 -70 -114 -139q0 -22 13.5 -35.5t40.5 -13.5q11 0 27 2l-7 -42q-10 -3 -29 -3q-40 0 -68 22
t-28 63q0 78 106 150z" />
    <glyph glyph-name="Wcircumflex" unicode="&#x174;" horiz-adv-x="988" 
d="M198 0l-101 724h63l56 -410q16 -117 28 -222h2q63 133 108 224l201 408h45l59 -418q17 -123 28 -214h2q32 70 101 212l205 420h65l-354 -724h-63l-59 418q-13 89 -24 185h-2q-41 -87 -88 -183l-207 -420h-65zM445 795l145 164h63l87 -164h-47l-77 125l-118 -125h-53z" />
    <glyph glyph-name="wcircumflex" unicode="&#x175;" horiz-adv-x="808" 
d="M428 492h41l46 -249q15 -79 29 -162h2q28 56 86 168l127 243h63l-261 -492h-58l-45 243q-16 87 -25 145h-2q-32 -62 -80 -150l-128 -238h-61l-89 492h63l43 -246q16 -94 27 -165h2q32 62 86 162zM314 563l145 164h63l87 -164h-47l-77 125l-118 -125h-53z" />
    <glyph glyph-name="Ycircumflex" unicode="&#x176;" horiz-adv-x="631" 
d="M477 543l156 181h72l-343 -396l-58 -328h-61l58 327l-206 397h68l93 -181q47 -90 82 -162h2q57 69 137 162zM267 795l145 164h63l87 -164h-47l-77 125l-118 -125h-53z" />
    <glyph glyph-name="ycircumflex" unicode="&#x177;" horiz-adv-x="533" 
d="M363 302l123 190h64l-464 -712h-66l183 276l-131 436h63l56 -188q29 -98 53 -185h2q37 59 117 183zM175 563l145 164h63l87 -164h-47l-77 125l-118 -125h-53z" />
    <glyph glyph-name="Ydieresis" unicode="&#x178;" horiz-adv-x="631" 
d="M477 543l156 181h72l-343 -396l-58 -328h-61l58 327l-206 397h68l93 -181q47 -90 82 -162h2q57 69 137 162zM335 836q-17 0 -28 11t-11 28q0 18 13 30.5t31 12.5q16 0 27.5 -11t11.5 -28q0 -18 -13 -30.5t-31 -12.5zM517 836q-17 0 -28 11t-11 28q0 18 13 30.5t31 12.5
q16 0 27.5 -11t11.5 -28q0 -18 -13 -30.5t-31 -12.5z" />
    <glyph glyph-name="Zacute" unicode="&#x179;" horiz-adv-x="578" 
d="M-26 0l-1 2l545 664l-1 2h-402l10 56h513l1 -2l-545 -664l1 -2h423l-10 -56h-534zM517 959l-134 -164h-47l115 164h66z" />
    <glyph glyph-name="zacute" unicode="&#x17a;" horiz-adv-x="481" 
d="M-15 0l-1 2l393 435l-1 2h-288l9 53h400l1 -2l-393 -435l1 -2h310l-9 -53h-422zM423 727l-134 -164h-47l115 164h66z" />
    <glyph glyph-name="Zdotaccent" unicode="&#x17b;" horiz-adv-x="578" 
d="M-26 0l-1 2l545 664l-1 2h-402l10 56h513l1 -2l-545 -664l1 -2h423l-10 -56h-534zM403 836q-17 0 -28 11t-11 28q0 18 13 30.5t31 12.5q16 0 27.5 -11t11.5 -28q0 -18 -13 -30.5t-31 -12.5z" />
    <glyph glyph-name="zdotaccent" unicode="&#x17c;" horiz-adv-x="481" 
d="M-15 0l-1 2l393 435l-1 2h-288l9 53h400l1 -2l-393 -435l1 -2h310l-9 -53h-422zM309 604q-17 0 -28 11t-11 28q0 18 13 30.5t31 12.5q16 0 27.5 -11t11.5 -28q0 -18 -13 -30.5t-31 -12.5z" />
    <glyph glyph-name="Zcaron" unicode="&#x17d;" horiz-adv-x="578" 
d="M-26 0l-1 2l545 664l-1 2h-402l10 56h513l1 -2l-545 -664l1 -2h423l-10 -56h-534zM568 959l-145 -164h-63l-87 164h47l77 -125l118 125h53z" />
    <glyph glyph-name="zcaron" unicode="&#x17e;" horiz-adv-x="481" 
d="M-15 0l-1 2l393 435l-1 2h-288l9 53h400l1 -2l-393 -435l1 -2h310l-9 -53h-422zM474 727l-145 -164h-63l-87 164h47l77 -125l118 125h53z" />
    <glyph glyph-name="longs" unicode="&#x17f;" horiz-adv-x="266" 
d="M151 492l24 134q15 80 55 114q39 35 105 35q35 0 76 -11l-9 -55q-36 12 -68 12q-43 0 -66 -22q-25 -22 -36 -83l-109 -616h-59l78 440h-83l9 52h83z" />
    <glyph glyph-name="florin" unicode="&#x192;" horiz-adv-x="486" 
d="M158 439l9 53h90l50 142q47 132 173 132q39 0 80 -11l-10 -54q-37 11 -74 11q-81 0 -112 -85l-48 -135h128l-9 -53h-138l-191 -542q-45 -128 -160 -128q-32 0 -70 11l10 54q31 -12 64 -12q70 0 100 82l188 535h-80z" />
    <glyph glyph-name="AEacute" unicode="&#x1fc;" horiz-adv-x="904" 
d="M467 271l36 204q24 134 36 198h-2q-59 -81 -128 -174l-170 -228h228zM-30 0l537 724h420l-10 -56h-319l-47 -264h276l-10 -56h-276l-51 -292h328l-10 -56h-389l38 217h-258l-162 -217h-67zM799 959l-134 -164h-47l115 164h66z" />
    <glyph glyph-name="aeacute" unicode="&#x1fd;" horiz-adv-x="901" 
d="M250 -11q-87 0 -144 58.5t-57 155.5q0 128 84 216q79 84 215 84q81 0 157 -31l-10 -56l2 -1q63 88 172 88q82 0 134.5 -55.5t52.5 -146.5q0 -33 -8 -71h-380v-13q0 -82 50 -128.5t129 -46.5q75 0 143 40l-11 -62q-59 -31 -137 -31q-63 0 -115.5 24.5t-82.5 72.5
q-81 -97 -194 -97zM259 42q98 0 163 90q-11 36 -11 78q0 26 5 56l29 165q-50 20 -103 20q-107 0 -169 -68q-65 -71 -65 -175q0 -75 41.5 -120.5t109.5 -45.5zM521 376q-31 -40 -46 -97h325q1 5 1 18q0 66 -34.5 109.5t-102.5 43.5q-86 0 -143 -74zM638 727l-134 -164h-47
l115 164h66z" />
    <glyph glyph-name="Oslashacute" unicode="&#x1fe;" horiz-adv-x="802" 
d="M130 328q0 -97 48 -170l456 445q-73 75 -188 75q-144 0 -234 -114q-82 -101 -82 -236zM69 324q0 156 95 274q111 137 285 137q137 0 228 -89l93 90l34 -35l-95 -92q65 -87 65 -209q0 -156 -95 -274q-111 -137 -285 -137q-137 0 -228 89l-93 -90l-34 35l95 92
q-65 87 -65 209zM713 396q0 97 -48 170l-456 -445q73 -75 188 -75q144 0 234 114q82 101 82 236zM624 959l-134 -164h-47l115 164h66z" />
    <glyph glyph-name="oslashacute" unicode="&#x1ff;" horiz-adv-x="590" 
d="M108 222q0 -58 26 -101l296 283q-47 45 -119 45q-83 0 -138 -58q-65 -68 -65 -169zM49 218q0 123 81 208q74 77 183 77q96 0 159 -58l61 58l30 -30l-63 -60q41 -58 41 -139q0 -123 -81 -208q-74 -77 -183 -77q-96 0 -159 58l-61 -58l-30 30l63 60q-41 58 -41 139z
M482 270q0 58 -26 101l-296 -283q47 -45 119 -45q83 0 138 58q65 68 65 169zM477 727l-134 -164h-47l115 164h66z" />
    <glyph glyph-name="Scommaaccent" unicode="&#x218;" horiz-adv-x="542" 
d="M30 66l12 70q43 -41 100.5 -65.5t114.5 -24.5q75 0 122 39q50 42 50 111q0 29 -9.5 50.5t-34 39.5t-44 28t-61.5 29q-44 20 -66 32t-50.5 34t-41 51t-12.5 68q0 87 62 146q64 61 166 61q112 0 203 -66l-12 -66q-92 75 -196 75q-73 0 -117 -40q-45 -40 -45 -103
q0 -28 9.5 -49t33.5 -38.5t43.5 -27.5t61.5 -29q43 -19 67 -32.5t51.5 -35.5t40 -52t12.5 -69q0 -97 -74 -159q-64 -54 -162 -54q-127 0 -224 77zM198 -54h60l-111 -218h-45z" />
    <glyph glyph-name="scommaaccent" unicode="&#x219;" horiz-adv-x="471" 
d="M19 48l11 63q37 -32 89.5 -50.5t104.5 -18.5q58 0 92 25q35 26 35 69q0 17 -8 31t-16 21.5t-30 16t-31.5 11t-38.5 9.5t-47.5 12.5t-41.5 16.5t-36 23t-22.5 31.5t-9.5 44.5q0 71 56 113q49 37 130 37q102 0 181 -50l-10 -57q-78 54 -179 54q-55 0 -85 -23
q-34 -26 -34 -67q0 -35 27 -50.5t84 -30.5q9 -2 14 -3q35 -9 58 -17.5t48 -23.5t37.5 -38t12.5 -53q0 -76 -61 -120q-48 -35 -128 -35q-119 0 -202 59zM156 -54h60l-111 -218h-45z" />
    <glyph glyph-name="uni021A" unicode="&#x21a;" horiz-adv-x="638" 
d="M245 0l118 668h-245l10 56h551l-10 -56h-245l-118 -668h-61zM244 -54h60l-111 -218h-45z" />
    <glyph glyph-name="uni021B" unicode="&#x21b;" horiz-adv-x="366" 
d="M101 115q0 28 8 73l44 252h-97l9 52h97l25 141l59 3l-25 -144h159l-9 -52h-159l-44 -250q-8 -46 -8 -66q0 -39 21.5 -60t60.5 -21q32 0 60 11l-10 -56q-29 -9 -58 -9q-57 0 -95 32t-38 94zM162 -54h60l-111 -218h-45z" />
    <glyph glyph-name="dotlessj" unicode="&#x237;" horiz-adv-x="234" 
d="M32 -79l101 571h59l-102 -578q-13 -70 -40 -100q-39 -45 -106 -45q-37 0 -67 11l9 54q40 -11 60 -11q39 0 58 24.5t28 73.5z" />
    <glyph glyph-name="circumflex" unicode="&#x2c6;" 
d="M149 563l145 164h63l87 -164h-47l-77 125l-118 -125h-53z" />
    <glyph glyph-name="caron" unicode="&#x2c7;" 
d="M473 727l-145 -164h-63l-87 164h47l77 -125l118 125h53z" />
    <glyph glyph-name="breve" unicode="&#x2d8;" 
d="M304 573q-52 0 -82 31.5t-30 81.5q0 12 2 30h40q-2 -14 -2 -25q0 -34 18.5 -56.5t57.5 -22.5q80 0 105 104h39q-11 -66 -51 -104.5t-97 -38.5z" />
    <glyph glyph-name="dotaccent" unicode="&#x2d9;" 
d="M308 604q-16 0 -27.5 11t-11.5 28q0 18 13 30.5t31 12.5q17 0 28 -11t11 -28q0 -18 -13 -30.5t-31 -12.5z" />
    <glyph glyph-name="ring" unicode="&#x2da;" 
d="M308 590q32 0 55 23.5t23 58.5q0 28 -17.5 48t-49.5 20t-55 -23.5t-23 -58.5q0 -28 17.5 -48t49.5 -20zM307 554q-45 0 -74.5 28.5t-29.5 73.5q0 48 34 84t83 36q45 0 74.5 -28.5t29.5 -73.5q0 -48 -34 -84t-83 -36z" />
    <glyph glyph-name="ogonek" unicode="&#x2db;" 
d="M135 -145q0 88 115 163l45 -12q-44 -29 -76 -67.5t-32 -77.5q0 -49 54 -49q13 0 27 2l-8 -42q-21 -3 -29 -3q-40 0 -68 22.5t-28 63.5z" />
    <glyph glyph-name="tilde" unicode="&#x2dc;" 
d="M300 625q-41 24 -64 24q-45 0 -78 -51l-2 1l10 59q27 40 79 40q28 0 77 -28q41 -24 64 -24q45 0 78 51l2 -1l-10 -59q-27 -40 -79 -40q-28 0 -77 28z" />
    <glyph glyph-name="hungarumlaut" unicode="&#x2dd;" 
d="M185 563l120 164h54l-132 -164h-42zM313 563l120 164h54l-132 -164h-42z" />
    <glyph glyph-name="uni0394" unicode="&#x394;" horiz-adv-x="684" 
d="M25 0v40l285 684h61l285 -684v-40h-631zM265 470l-172 -414h493l-173 418q-46 112 -72 177h-2q-34 -85 -74 -181z" />
    <glyph glyph-name="uni03A9" unicode="&#x3a9;" horiz-adv-x="746" 
d="M381 735q144 0 232 -95t88 -239q0 -94 -41 -182.5t-115 -160.5l1 -2h186v-56h-270v42q178 156 178 354q0 124 -69.5 203t-189.5 79t-189.5 -79t-69.5 -203q0 -198 178 -354v-42h-270v56h186l1 2q-74 72 -115 160.5t-41 182.5q0 144 88 239t232 95z" />
    <glyph glyph-name="uni03BC" unicode="&#x3bc;" horiz-adv-x="608" 
d="M527 0h-59v70l-2 1q-86 -82 -187 -82q-76 0 -114 41l-2 -1l6 -249h-62v712h59v-286q0 -91 31 -126q33 -37 93 -37q92 0 178 91v358h59v-492z" />
    <glyph glyph-name="pi" unicode="&#x3c0;" horiz-adv-x="642" 
d="M147 0q32 194 34 437q-72 -8 -134 -49v54q69 50 172 50h418l-9 -53h-107v-439h-59v439h-222q-2 -225 -34 -439h-59z" />
    <glyph glyph-name="Wgrave" unicode="&#x1e80;" horiz-adv-x="988" 
d="M198 0l-101 724h63l56 -410q16 -117 28 -222h2q63 133 108 224l201 408h45l59 -418q17 -123 28 -214h2q32 70 101 212l205 420h65l-354 -724h-63l-59 418q-13 89 -24 185h-2q-41 -87 -88 -183l-207 -420h-65zM601 795l-76 164h64l57 -164h-45z" />
    <glyph glyph-name="wgrave" unicode="&#x1e81;" horiz-adv-x="808" 
d="M428 492h41l46 -249q15 -79 29 -162h2q28 56 86 168l127 243h63l-261 -492h-58l-45 243q-16 87 -25 145h-2q-32 -62 -80 -150l-128 -238h-61l-89 492h63l43 -246q16 -94 27 -165h2q32 62 86 162zM470 563l-76 164h64l57 -164h-45z" />
    <glyph glyph-name="Wacute" unicode="&#x1e82;" horiz-adv-x="988" 
d="M198 0l-101 724h63l56 -410q16 -117 28 -222h2q63 133 108 224l201 408h45l59 -418q17 -123 28 -214h2q32 70 101 212l205 420h65l-354 -724h-63l-59 418q-13 89 -24 185h-2q-41 -87 -88 -183l-207 -420h-65zM718 959l-134 -164h-47l115 164h66z" />
    <glyph glyph-name="wacute" unicode="&#x1e83;" horiz-adv-x="808" 
d="M428 492h41l46 -249q15 -79 29 -162h2q28 56 86 168l127 243h63l-261 -492h-58l-45 243q-16 87 -25 145h-2q-32 -62 -80 -150l-128 -238h-61l-89 492h63l43 -246q16 -94 27 -165h2q32 62 86 162zM587 727l-134 -164h-47l115 164h66z" />
    <glyph glyph-name="Wdieresis" unicode="&#x1e84;" horiz-adv-x="988" 
d="M198 0l-101 724h63l56 -410q16 -117 28 -222h2q63 133 108 224l201 408h45l59 -418q17 -123 28 -214h2q32 70 101 212l205 420h65l-354 -724h-63l-59 418q-13 89 -24 185h-2q-41 -87 -88 -183l-207 -420h-65zM513 836q-17 0 -28 11t-11 28q0 18 13 30.5t31 12.5
q16 0 27.5 -11t11.5 -28q0 -18 -13 -30.5t-31 -12.5zM695 836q-17 0 -28 11t-11 28q0 18 13 30.5t31 12.5q16 0 27.5 -11t11.5 -28q0 -18 -13 -30.5t-31 -12.5z" />
    <glyph glyph-name="wdieresis" unicode="&#x1e85;" horiz-adv-x="808" 
d="M428 492h41l46 -249q15 -79 29 -162h2q28 56 86 168l127 243h63l-261 -492h-58l-45 243q-16 87 -25 145h-2q-32 -62 -80 -150l-128 -238h-61l-89 492h63l43 -246q16 -94 27 -165h2q32 62 86 162zM382 604q-16 0 -27.5 11t-11.5 28q0 18 13 30.5t31 12.5q17 0 28 -11
t11 -28q0 -18 -13 -30.5t-31 -12.5zM564 604q-16 0 -27.5 11t-11.5 28q0 18 13 30.5t31 12.5q17 0 28 -11t11 -28q0 -18 -13 -30.5t-31 -12.5z" />
    <glyph glyph-name="Ygrave" unicode="&#x1ef2;" horiz-adv-x="631" 
d="M477 543l156 181h72l-343 -396l-58 -328h-61l58 327l-206 397h68l93 -181q47 -90 82 -162h2q57 69 137 162zM423 795l-76 164h64l57 -164h-45z" />
    <glyph glyph-name="ygrave" unicode="&#x1ef3;" horiz-adv-x="533" 
d="M363 302l123 190h64l-464 -712h-66l183 276l-131 436h63l56 -188q29 -98 53 -185h2q37 59 117 183zM331 563l-76 164h64l57 -164h-45z" />
    <glyph glyph-name="endash" unicode="&#x2013;" horiz-adv-x="492" 
d="M57 253l8 48h382l-8 -48h-382z" />
    <glyph glyph-name="emdash" unicode="&#x2014;" horiz-adv-x="778" 
d="M41 256l8 43h700l-8 -43h-700z" />
    <glyph glyph-name="quoteleft" unicode="&#x2018;" horiz-adv-x="266" 
d="M111 481l121 261h41l-102 -261h-60z" />
    <glyph glyph-name="quoteright" unicode="&#x2019;" horiz-adv-x="266" 
d="M283 742l-121 -261h-41l102 261h60z" />
    <glyph glyph-name="quotesinglbase" unicode="&#x201a;" horiz-adv-x="266" 
d="M174 164l-121 -261h-41l102 261h60z" />
    <glyph glyph-name="quotedblleft" unicode="&#x201c;" horiz-adv-x="414" 
d="M111 481l121 261h41l-102 -261h-60zM258 481l121 261h41l-102 -261h-60z" />
    <glyph glyph-name="quotedblright" unicode="&#x201d;" horiz-adv-x="414" 
d="M283 742l-121 -261h-41l102 261h60zM430 742l-121 -261h-41l102 261h60z" />
    <glyph glyph-name="quotedblbase" unicode="&#x201e;" horiz-adv-x="414" 
d="M174 164l-121 -261h-41l102 261h60zM321 164l-121 -261h-41l102 261h60z" />
    <glyph glyph-name="dagger" unicode="&#x2020;" horiz-adv-x="601" 
d="M191 -220l114 649h-206l9 52h206l43 243h54l-43 -243h206l-9 -52h-206l-114 -649h-54z" />
    <glyph glyph-name="daggerdbl" unicode="&#x2021;" horiz-adv-x="601" 
d="M28 23l9 52h206l62 354h-206l9 52h206l43 243h54l-43 -243h206l-9 -52h-206l-62 -354h206l-9 -52h-206l-43 -243h-54l43 243h-206z" />
    <glyph glyph-name="bullet" unicode="&#x2022;" horiz-adv-x="384" 
d="M201 197q-41 0 -70.5 29.5t-29.5 70.5t29.5 70.5t70.5 29.5t70.5 -29.5t29.5 -70.5t-29.5 -70.5t-70.5 -29.5z" />
    <glyph glyph-name="ellipsis" unicode="&#x2026;" horiz-adv-x="826" 
d="M109 -11q-21 0 -35 14t-14 34q0 22 15.5 37t37.5 15q21 0 35 -14t14 -34q0 -22 -15.5 -37t-37.5 -15zM374 -11q-21 0 -35 14t-14 34q0 22 15.5 37t37.5 15q21 0 35 -14t14 -34q0 -22 -15.5 -37t-37.5 -15zM639 -11q-21 0 -35 14t-14 34q0 22 15.5 37t37.5 15q21 0 35 -14
t14 -34q0 -22 -15.5 -37t-37.5 -15z" />
    <glyph glyph-name="perthousand" unicode="&#x2030;" horiz-adv-x="1326" 
d="M148 0l613 724h52l-613 -724h-52zM266 404q58 0 99 49.5t41 111.5q0 51 -31 89t-83 38q-58 0 -99 -49.5t-41 -111.5q0 -51 31 -89t83 -38zM264 361q-68 0 -112 48t-44 118q0 79 52.5 143.5t133.5 64.5q68 0 112 -48t44 -118q0 -79 -52.5 -143.5t-133.5 -64.5zM695 320
q-58 0 -99 -49.5t-41 -111.5q0 -51 31 -89t83 -38q58 0 99 49.5t41 111.5q0 51 -31 89t-83 38zM697 363q68 0 112 -48t44 -118q0 -79 -52.5 -143.5t-133.5 -64.5q-68 0 -112 48t-44 118q0 79 52.5 143.5t133.5 64.5zM1103 320q-58 0 -99 -49.5t-41 -111.5q0 -51 31 -89
t83 -38q58 0 99 49.5t41 111.5q0 51 -31 89t-83 38zM1105 363q68 0 112 -48t44 -118q0 -79 -52.5 -143.5t-133.5 -64.5q-68 0 -112 48t-44 118q0 79 52.5 143.5t133.5 64.5z" />
    <glyph glyph-name="guilsinglleft" unicode="&#x2039;" horiz-adv-x="339" 
d="M177 27l-131 230l202 208h58l-207 -213l130 -225h-52z" />
    <glyph glyph-name="guilsinglright" unicode="&#x203a;" horiz-adv-x="339" 
d="M162 465l131 -230l-202 -208h-58l207 213l-130 225h52z" />
    <glyph glyph-name="fraction" unicode="&#x2044;" horiz-adv-x="373" 
d="M-68 -13h-58l604 737h58z" />
    <glyph glyph-name="four.superior" unicode="&#x2074;" horiz-adv-x="397" 
d="M268 696l-109 -121l1 -2h148l17 97q14 76 21 111l-2 1q-28 -32 -76 -86zM282 422l19 110h-231l-1 2l290 322h47l-50 -283h84l-7 -41h-84l-19 -110h-48z" />
    <glyph glyph-name="Euro" unicode="&#x20ac;" horiz-adv-x="585" 
d="M44 425l8 48h87q45 117 140 189.5t217 72.5q66 0 130 -22l-11 -60q-62 25 -123 25q-95 0 -171 -54.5t-118 -150.5h221l-8 -48h-231q-17 -59 -17 -116h228l-9 -49h-216q12 -100 77 -157t171 -57q61 0 103 15l-11 -61q-44 -11 -97 -11q-130 0 -211.5 73t-93.5 198h-94l9 49
h83q0 54 16 116h-79z" />
    <glyph glyph-name="litre" unicode="&#x2113;" horiz-adv-x="433" 
d="M83 144l-33 57q42 38 80 77v258q0 102 40.5 158t102.5 56q53 0 84 -41.5t31 -113.5q0 -158 -158 -328v-66q0 -75 14.5 -105.5t46.5 -30.5q39 0 87 55l37 -48q-60 -86 -148 -86q-68 0 -102 46t-34 123v35q-43 -43 -48 -46zM230 363q85 117 85 232q0 35 -11 58t-27 23
q-47 0 -47 -132v-181z" />
    <glyph glyph-name="trademark" unicode="&#x2122;" horiz-adv-x="626" 
d="M350 434v290h37l101 -146l103 146h37v-290h-37v225l-2 1l-101 -143l-100 145l-2 -1v-227h-36zM171 434v256h-92v34h221v-34h-92v-256h-37z" />
    <glyph glyph-name="Omega" unicode="&#x2126;" horiz-adv-x="746" 
d="M381 735q144 0 232 -95t88 -239q0 -94 -41 -182.5t-115 -160.5l1 -2h186v-56h-270v42q178 156 178 354q0 124 -69.5 203t-189.5 79t-189.5 -79t-69.5 -203q0 -198 178 -354v-42h-270v56h186l1 2q-74 72 -115 160.5t-41 182.5q0 144 88 239t232 95z" />
    <glyph glyph-name="estimated" unicode="&#x212e;" horiz-adv-x="820" 
d="M223 268v-131q0 -41 35.5 -71t81 -42.5t91.5 -12.5q67 0 131.5 30.5t106.5 87.5l33 -7q-102 -139 -274 -139q-146 0 -241.5 93t-95.5 229t95.5 229.5t240.5 93.5q85 0 157.5 -32.5t122 -101.5t53.5 -162q1 -23 -4 -27.5t-28 -4.5h-473q-25 0 -28.5 -4t-3.5 -28zM255 328
h342q25 0 28.5 4t3.5 28v125q0 48 -59.5 81.5t-143.5 33.5t-143.5 -33.5t-59.5 -81.5v-125q0 -24 3.5 -28t28.5 -4z" />
    <glyph glyph-name="partialdiff" unicode="&#x2202;" horiz-adv-x="561" 
d="M62 204q0 100 61.5 172t165.5 72q101 0 180 -70l1 1q-1 45 -5 86.5t-17 90.5t-33 84t-55.5 58.5t-82.5 23.5q-68 0 -128 -40v56q62 38 137 38q65 0 113.5 -33t75.5 -90t40 -125.5t13 -148.5q0 -82 -13.5 -150.5t-42.5 -123.5t-79 -85.5t-117 -30.5q-97 0 -155.5 59.5
t-58.5 155.5zM121 205q0 -72 42 -117t114 -45q91 0 137.5 73t53.5 201q-72 79 -172 79q-84 0 -129.5 -57t-45.5 -134z" />
    <glyph glyph-name="Delta" unicode="&#x2206;" horiz-adv-x="684" 
d="M25 0v40l285 684h61l285 -684v-40h-631zM265 470l-172 -414h493l-173 418q-46 112 -72 177h-2q-34 -85 -74 -181z" />
    <glyph glyph-name="product" unicode="&#x220f;" horiz-adv-x="782" 
d="M204 -116v784h-128v56h705v-56h-128v-784h-61v784h-327v-784h-61z" />
    <glyph glyph-name="summation" unicode="&#x2211;" horiz-adv-x="614" 
d="M77 -75l244 402l-237 356v41h479v-56h-402l226 -340l-235 -388h428v-56h-503v41z" />
    <glyph glyph-name="minus" unicode="&#x2212;" horiz-adv-x="576" 
d="M71 338l8 48h467l-8 -48h-467z" />
    <glyph glyph-name="radical" unicode="&#x221a;" horiz-adv-x="669" 
d="M188 493l128 -334q36 -94 65 -174h2q32 98 59 176l245 717h51l-341 -994h-28l-211 547l-108 -45l-17 42z" />
    <glyph glyph-name="infinity" unicode="&#x221e;" horiz-adv-x="761" 
d="M382 204h-2q-67 -138 -176 -138q-74 0 -119.5 54.5t-45.5 131.5q0 78 45 132t122 54q110 0 178 -138h2q67 138 176 138q74 0 119.5 -54.5t45.5 -131.5q0 -78 -45 -132t-122 -54q-110 0 -178 138zM561 390q-55 0 -88.5 -35.5t-64.5 -101.5q28 -66 63 -102.5t90 -36.5
q53 0 85 39t32 99q0 59 -31.5 98.5t-85.5 39.5zM205 114q55 0 88.5 35.5t64.5 101.5q-28 66 -63 102.5t-90 36.5q-53 0 -85 -39t-32 -99q0 -59 31.5 -98.5t85.5 -39.5z" />
    <glyph glyph-name="integral" unicode="&#x222b;" horiz-adv-x="348" 
d="M169 585l108 -518q13 -65 13 -102q0 -73 -43.5 -110.5t-114.5 -37.5q-28 0 -56 5v54q28 -5 54 -5q102 0 102 98q0 29 -12 89l-108 518q-13 65 -13 102q0 73 43.5 110.5t114.5 37.5q28 0 56 -5v-54q-28 5 -54 5q-102 0 -102 -98q0 -29 12 -89z" />
    <glyph glyph-name="approxequal" unicode="&#x2248;" horiz-adv-x="576" 
d="M223 504q40 0 108 -28t100 -28t54 15t46 46l13 -40q-48 -69 -118 -69q-40 0 -108 28t-100 28t-54 -15t-46 -46l-13 40q48 69 118 69zM191 324q40 0 108 -28t100 -28t54 15t46 46l13 -40q-48 -69 -118 -69q-40 0 -108 28t-100 28t-54 -15t-46 -46l-13 40q48 69 118 69z
" />
    <glyph glyph-name="notequal" unicode="&#x2260;" horiz-adv-x="576" 
d="M89 436l8 48h306l153 155l27 -27l-127 -128h108l-8 -48h-148l-146 -148h267l-8 -48h-306l-153 -155l-27 27l127 128h-108l8 48h147l146 148h-266z" />
    <glyph glyph-name="lessequal" unicode="&#x2264;" horiz-adv-x="662" 
d="M47 0l8 44h481l-8 -44h-481zM112 365l6 36l519 218l-9 -53l-435 -183v-2l369 -184l-9 -51z" />
    <glyph glyph-name="greaterequal" unicode="&#x2265;" horiz-adv-x="662" 
d="M47 0l8 44h481l-8 -44h-481zM598 400l-6 -36l-519 -218l9 53l435 183v2l-369 184l9 51z" />
    <glyph glyph-name="lozenge" unicode="&#x25ca;" horiz-adv-x="527" 
d="M265 -19l-185 379l185 378h32l185 -379l-185 -378h-32zM280 51h2l151 308l-151 309h-2l-151 -308z" />
    <glyph glyph-name="commaaccent" unicode="&#xf6c3;" 
d="M165 -54h60l-111 -218h-45z" />
    <glyph glyph-name="apple" unicode="&#xf8ff;" horiz-adv-x="1004" 
d="M514 674q-2 12 -2 27q0 66 56 125t129 62q2 -14 2 -25q0 -76 -56.5 -132.5t-128.5 -56.5zM240 96q-48 64 -77 148t-29 169q0 123 67 197t177 74q21 0 83 -18.5t66 -18.5q12 0 79 23q42 14 88 14q116 0 186 -87q-101 -74 -101 -176q0 -118 125 -183q-34 -95 -97.5 -169
t-115.5 -74q-21 0 -82 22q-46 17 -77 17q-30 0 -65 -13q-68 -26 -86 -26q-66 0 -141 101z" />
    <glyph glyph-name="ff" unicode="&#xfb00;" horiz-adv-x="624" 
d="M452 492l24 134q15 80 55 114q39 35 105 35q35 0 76 -11l-9 -55q-36 12 -68 12q-43 0 -66 -22q-25 -22 -36 -83l-22 -124h135l-9 -52h-135l-78 -440h-59l78 440h-242l-78 -440h-59l78 440h-83l9 52h83l24 134q15 80 55 114q39 35 105 35q35 0 76 -11l-9 -55
q-36 12 -68 12q-43 0 -66 -22q-25 -22 -36 -83l-22 -124h242z" />
    <glyph glyph-name="commaaccent.alt" 
d="M246 556l111 218h45l-96 -218h-60z" />
    <glyph glyph-name="hyphen.cap" horiz-adv-x="353" 
d="M78 335l9 52h228l-9 -52h-228z" />
    <glyph glyph-name="exclamdown.cap" horiz-adv-x="310" 
d="M221 514l-76 -514h-67l105 514h38zM235 735q20 0 33.5 -13.5t13.5 -33.5q0 -21 -15 -35.5t-36 -14.5q-20 0 -33.5 13.5t-13.5 33.5q0 21 15 35.5t36 14.5z" />
    <glyph glyph-name="questiondown.cap" horiz-adv-x="468" 
d="M300 537h54l-29 -167q-96 0 -163 -44.5t-67 -126.5q0 -68 47.5 -110t120.5 -42q59 0 115 28l-11 -64q-50 -21 -107 -21q-96 0 -161 57t-65 149q0 94 68 154.5t172 69.5zM354 736q20 0 33.5 -13.5t13.5 -33.5q0 -21 -15 -35.5t-36 -14.5q-20 0 -33.5 13.5t-13.5 33.5
q0 21 15 35.5t36 14.5z" />
    <glyph glyph-name="guilsinglleft.cap" horiz-adv-x="339" 
d="M197 143l-131 230l202 208h58l-207 -213l130 -225h-52z" />
    <glyph glyph-name="guilsinglright.cap" horiz-adv-x="339" 
d="M182 581l131 -230l-202 -208h-58l207 213l-130 225h52z" />
    <glyph glyph-name="guillemotleft.cap" horiz-adv-x="534" 
d="M197 143l-131 230l202 208h58l-207 -213l130 -225h-52zM393 143l-131 230l202 208h58l-207 -213l130 -225h-52z" />
    <glyph glyph-name="guillemotright.cap" horiz-adv-x="534" 
d="M182 581l131 -230l-202 -208h-58l207 213l-130 225h52zM378 581l131 -230l-202 -208h-58l207 213l-130 225h52z" />
    <glyph glyph-name="endash.cap" horiz-adv-x="492" 
d="M72 337l8 48h382l-8 -48h-382z" />
    <glyph glyph-name="emdash.cap" horiz-adv-x="778" 
d="M56 340l8 43h700l-8 -43h-700z" />
    <glyph glyph-name="parenleft.cap" horiz-adv-x="317" 
d="M92 210q0 188 70 362q62 154 169 268h63q-115 -115 -181 -282q-67 -167 -67 -344q0 -188 76 -330h-55q-75 135 -75 326z" />
    <glyph glyph-name="parenright.cap" horiz-adv-x="317" 
d="M273 514q0 -188 -70 -362q-62 -154 -169 -268h-63q115 115 181 282q67 167 67 344q0 188 -76 330h55q75 -135 75 -326z" />
    <glyph glyph-name="bracketleft.cap" horiz-adv-x="319" 
d="M89 -68h145l-8 -48h-200l169 956h200l-8 -48h-146z" />
    <glyph glyph-name="bracketright.cap" horiz-adv-x="319" 
d="M271 792h-145l8 48h200l-169 -956h-200l8 48h146z" />
    <glyph glyph-name="braceleft.cap" horiz-adv-x="345" 
d="M100 37l37 209q4 21 4 41q0 27 -14.5 39t-52.5 12h-28l8 48h33q48 0 65 21t26 70l40 227q13 75 47 111t98 36q35 0 67 -10l-8 -46q-24 8 -56 8q-43 0 -64 -24.5t-31 -82.5l-39 -221q-8 -48 -25 -76t-53 -37v-1q42 -16 42 -70q0 -17 -6 -53l-35 -199q-6 -33 -6 -52
q0 -36 19 -51t58 -15q24 0 42 3l-8 -48q-16 -3 -40 -3q-126 0 -126 107q0 25 6 57z" />
    <glyph glyph-name="braceright.cap" horiz-adv-x="345" 
d="M286 687l-37 -209q-4 -21 -4 -41q0 -27 14.5 -39t52.5 -12h28l-8 -48h-33q-48 0 -65 -21t-26 -70l-40 -227q-13 -75 -47 -111t-98 -36q-35 0 -67 10l8 46q24 -8 56 -8q43 0 64 24.5t31 82.5l39 221q8 48 25 76t53 37v1q-42 16 -42 70q0 17 6 53l35 199q6 33 6 52
q0 36 -19 51t-58 15q-24 0 -42 -3l8 48q16 3 40 3q126 0 126 -107q0 -25 -6 -57z" />
    <glyph glyph-name="i.TRK" horiz-adv-x="234" 
d="M44 0l87 492h59l-87 -492h-59z" />
    <glyph glyph-name="tilde.cap" 
d="M341 857q-41 24 -64 24q-45 0 -78 -51l-2 1l10 59q27 40 79 40q28 0 77 -28q41 -24 64 -24q45 0 78 51l2 -1l-10 -59q-27 -40 -79 -40q-28 0 -77 28z" />
    <glyph glyph-name="dieresis.cap" 
d="M258 836q-16 0 -27.5 11t-11.5 28q0 18 13 30.5t31 12.5q17 0 28 -11t11 -28q0 -18 -13 -30.5t-31 -12.5zM440 836q-16 0 -27.5 11t-11.5 28q0 18 13 30.5t31 12.5q17 0 28 -11t11 -28q0 -18 -13 -30.5t-31 -12.5z" />
    <glyph glyph-name="macron.cap" 
d="M216 854l8 46h263l-8 -46h-263z" />
    <glyph glyph-name="breve.cap" 
d="M345 805q-52 0 -82 31.5t-30 81.5q0 12 2 30h40q-2 -14 -2 -25q0 -34 18.5 -56.5t57.5 -22.5q80 0 105 104h39q-11 -66 -51 -104.5t-97 -38.5z" />
    <glyph glyph-name="ring.cap" 
d="M349 822q32 0 55 23.5t23 58.5q0 28 -17.5 48t-49.5 20t-55 -23.5t-23 -58.5q0 -28 17.5 -48t49.5 -20zM348 786q-45 0 -74.5 28.5t-29.5 73.5q0 48 34 84t83 36q45 0 74.5 -28.5t29.5 -73.5q0 -48 -34 -84t-83 -36z" />
    <glyph glyph-name="hungarumlaut.cap" 
d="M226 795l120 164h54l-132 -164h-42zM354 795l120 164h54l-132 -164h-42z" />
    <glyph glyph-name="dotaccent.cap" 
d="M349 836q-17 0 -28 11t-11 28q0 18 13 30.5t31 12.5q16 0 27.5 -11t11.5 -28q0 -18 -13 -30.5t-31 -12.5z" />
    <glyph glyph-name="grave.cap" 
d="M346 795l-76 164h64l57 -164h-45z" />
    <glyph glyph-name="acute.cap" 
d="M463 959l-134 -164h-47l115 164h66z" />
    <glyph glyph-name="circumflex.cap" 
d="M190 795l145 164h63l87 -164h-47l-77 125l-118 -125h-53z" />
    <glyph glyph-name="caron.cap" 
d="M514 959l-145 -164h-63l-87 164h47l77 -125l118 125h53z" />
    <glyph glyph-name="periodcentered.cap" horiz-adv-x="296" 
d="M167 312q-21 0 -35 14t-14 34q0 22 15.5 37t37.5 15q21 0 35 -14t14 -34q0 -22 -15.5 -37t-37.5 -15z" />
    <glyph glyph-name="at.cap" horiz-adv-x="800" 
d="M61 329q0 105 49 198t139.5 150.5t200.5 57.5q145 0 241 -94t96 -238q0 -96 -44 -164.5t-120 -68.5q-79 0 -103 63h-2q-61 -64 -140 -64q-63 0 -102.5 43.5t-39.5 112.5q0 89 61.5 159.5t156.5 70.5q73 0 140 -46l-34 -193q-5 -28 -5 -41q0 -32 19 -50.5t51 -18.5
q60 0 92.5 56.5t32.5 135.5q0 127 -84 214t-216 87q-148 0 -250 -108t-102 -259q0 -135 84.5 -221t216.5 -86q104 0 191 58l16 -31q-93 -63 -208 -63q-145 0 -241 96t-96 244zM386 210q35 0 69 17.5t57 47.5q0 18 5 48l29 165q-48 26 -91 26q-75 0 -124 -58t-49 -130
q0 -52 28 -84t76 -32z" />
    </font>
</defs>
</svg>
