<?xml version="1.0" encoding="utf-8"?>
<!-- Generator: Adobe Illustrator 21.1.0, SVG Export Plug-In . SVG Version: 6.00 Build 0)  -->
<svg version="1.1" id="Layer_1" xmlns="http://www.w3.org/2000/svg" xmlns:xlink="http://www.w3.org/1999/xlink" x="0px" y="0px"
	 viewBox="0 0 50 50" style="enable-background:new 0 0 50 50;" xml:space="preserve">
<style type="text/css">
	.st0{fill:#FFFFFF;}
</style>
<g>
	<g>
		<path class="st0" d="M25.4,2.5c-12.1,0-21.9,9.9-21.9,22c0,4,1.1,8,3.1,11.4L3.5,46.5l10.6-3.1c3.4,2,7.3,3.1,11.3,3.1
			c12.1,0,22.1-9.9,22.1-22C47.5,12.4,37.5,2.5,25.4,2.5z M25.4,43.9c-3.7,0-7.3-1-10.4-3l-0.5-0.3l-7.2,2.1l2.1-7.2L9.1,35
			c-2-3.1-3-6.7-3-10.5c0-10.7,8.7-19.4,19.3-19.4c10.8,0,19.5,8.7,19.5,19.4C44.9,35.2,36.2,43.9,25.4,43.9z M39,29.9l-4.1-4.1
			c-0.5-0.5-1.2-0.8-1.9-0.8c-0.7,0-1.4,0.3-1.9,0.8l-1,1c-0.6,0.6-1.8,0.6-2.4,0l-4.1-4.3c0,0,0,0,0,0c-0.6-0.6-0.6-1.6,0-2.3l1-1
			c1.1-1.1,1.1-2.8,0-3.9l-4.1-4.1c-1.1-1.1-2.8-1.1-3.9,0l-1,1v0c-1.5,1.5-2,4.6-1.3,8.2c0.4,2.2,1.7,6.5,5.4,10.2
			c3.7,3.7,8,4.9,10.2,5.4c2.6,0.5,6.3,0.6,8.2-1.3l1-1c0.5-0.5,0.8-1.2,0.8-1.9C39.8,31.1,39.5,30.4,39,29.9z M37.2,31.8
			c0,0,0,0.1,0,0.1l-1,1c-0.7,0.7-2.9,1.1-5.8,0.6c-1.9-0.4-5.7-1.5-8.9-4.7c-3.2-3.2-4.3-6.9-4.7-8.9c-0.6-2.9-0.1-5.1,0.6-5.8
			c1.1-1,1-1.1,1.1-1.1c0,0,0.1,0,0.1,0c4.3,4.3,4.1,4.1,4.1,4.2c0,0,0,0.1,0,0.1l-1,1c-1.6,1.6-1.6,4.3,0,5.9l4.1,4.3c0,0,0,0,0,0
			c1.6,1.6,4.5,1.6,6.1,0l1-1c0.1-0.1,0.2-0.1,0.2,0C37.4,31.9,37.2,31.7,37.2,31.8z"/>
	</g>
</g>
</svg>
